<svg width="77" height="57" viewBox="0 0 77 57" fill="none" xmlns="http://www.w3.org/2000/svg">
<g clip-path="url(#clip0_12423_21793)">
<path fill-rule="evenodd" clip-rule="evenodd" d="M0 -10.8574H77V67.8569H0V-10.8574Z" fill="white"/>
<path fill-rule="evenodd" clip-rule="evenodd" d="M72.3817 38.408C72.6961 38.5917 73.0113 38.6722 73.3484 38.6722H73.3592C73.6972 38.6722 74.0124 38.5917 74.3267 38.408C74.6342 38.2429 74.8853 37.9863 75.047 37.6721C75.2167 37.3716 75.3057 37.0305 75.305 36.6835C75.305 36.327 75.2263 35.9937 75.047 35.6715C74.8776 35.3498 74.6303 35.1084 74.316 34.9357C74.0008 34.7633 73.6864 34.6719 73.3592 34.6719H73.3484C73.014 34.6822 72.6866 34.7725 72.3925 34.9357C72.0781 35.1084 71.8416 35.3498 71.6615 35.6715C71.4888 35.9793 71.3997 36.3287 71.4034 36.6835C71.4034 37.0167 71.4821 37.3503 71.6615 37.6721C71.8229 37.9865 72.0741 38.2431 72.3817 38.408ZM71.9435 35.8443C72.0857 35.5837 72.2959 35.3686 72.5507 35.2232C72.8088 35.0851 73.0788 35.0051 73.3488 35.0051H73.3596C73.6297 35.0051 73.8997 35.0851 74.1586 35.2232C74.4132 35.3689 74.6234 35.5839 74.7658 35.8443C74.9124 36.1085 74.9795 36.3845 74.9795 36.6835C74.9808 36.9737 74.9071 37.2591 74.7658 37.5108C74.6274 37.7674 74.4208 37.9787 74.1698 38.1201C73.9234 38.2645 73.644 38.3398 73.36 38.3386H73.3492C73.0653 38.3396 72.786 38.2643 72.5395 38.1201C72.2889 37.9784 72.0826 37.7672 71.9443 37.5108C71.7977 37.2466 71.719 36.971 71.719 36.6835C71.7178 36.3845 71.7965 36.1089 71.9435 35.8443Z" fill="black"/>
<path fill-rule="evenodd" clip-rule="evenodd" d="M72.8312 36.869H73.0334C73.1576 36.869 73.2471 36.8923 73.3034 36.9495C73.3262 36.9609 73.3378 36.9727 73.3485 36.9838C73.4384 37.0642 73.5399 37.2255 73.6637 37.444L73.8551 37.7887H74.2601L74.0129 37.3636C73.8886 37.1679 73.7764 37.0185 73.6977 36.938C73.6454 36.8883 73.5842 36.8493 73.5175 36.8233C73.6977 36.8119 73.8435 36.7428 73.9561 36.6277C74.0688 36.5125 74.1255 36.3749 74.1255 36.2136C74.1255 36.0989 74.0911 35.9951 74.024 35.9032C73.9611 35.8035 73.8653 35.73 73.754 35.6962C73.6641 35.6619 73.5295 35.6386 73.3489 35.6386C73.3154 35.6386 73.2702 35.6272 73.2255 35.6272H72.4945V37.7882H72.8316V36.869H72.8312ZM72.8312 35.9261H73.3485C73.45 35.938 73.5171 35.9494 73.5622 35.9608C73.6234 35.9786 73.6756 36.0197 73.7081 36.0756C73.7416 36.1213 73.7532 36.1793 73.7532 36.2483C73.7545 36.2919 73.746 36.3353 73.7284 36.375C73.7108 36.4148 73.6846 36.45 73.6517 36.4778C73.5954 36.5354 73.4939 36.5583 73.3481 36.5701H72.8308V35.9261H72.8312ZM22.3296 36.1679H25.3659L22.3296 30.9947L19.7654 26.6383L8.86908 33.3285L10.5333 36.1679H22.3296ZM50.5772 36.1679H65.4099L56.177 20.4422L45.9669 3.08398L41.7609 5.67055L35.0814 9.77418L41.7609 21.1434L50.5772 36.1679ZM45.3937 41.3524C44.3475 40.6631 43.1215 40.2605 41.7945 40.2605H41.7609C38.0954 40.2833 35.1154 43.3412 35.1154 47.0887C35.1154 50.8367 38.0954 53.8941 41.7609 53.9173H41.7945C43.1215 53.9173 44.3475 53.5151 45.3937 52.8254V53.538H48.4632V36.1683H45.3937V41.3524ZM45.3937 47.8017C45.0677 49.5262 43.5717 50.8477 41.7945 50.8477H41.7609C39.748 50.8248 38.1178 49.1464 38.1178 47.0887C38.1178 45.0314 39.748 43.353 41.7609 43.3412H41.7945C43.5717 43.3412 45.0673 44.652 45.3937 46.3761V47.8017ZM59.8097 41.3524C58.7396 40.6386 57.4891 40.2591 56.2113 40.2605H56.177C52.5114 40.2833 49.5318 43.3412 49.5318 47.0887C49.5318 50.8367 52.5114 53.8941 56.177 53.9173H56.2113C57.5384 53.9173 58.7751 53.5151 59.8097 52.8254V53.538H62.8801V40.6051H59.8097V41.3524ZM59.8097 47.8017C59.4838 49.5262 57.9878 50.8477 56.2113 50.8477H56.177C54.1648 50.8248 52.5342 49.1464 52.5342 47.0887C52.5342 45.0314 54.1648 43.353 56.177 43.3412H56.2113C57.9878 43.3412 59.4834 44.652 59.8097 46.3761V47.8017ZM73.7987 46.2381C73.6865 46.1801 73.5287 46.1229 73.3485 46.0539C72.6627 45.8126 71.5493 45.5136 69.9974 45.169C68.6368 44.8582 67.9509 44.4564 67.9509 43.9504C67.9509 43.5939 68.0744 43.3064 68.3104 43.0998C68.6256 42.8238 69.1873 42.6857 69.9974 42.6857C70.8183 42.6857 71.4143 42.8699 71.763 43.226C71.9768 43.4445 72.1338 43.8349 72.2352 44.387H75.4965C75.4965 42.7548 74.8441 41.5823 73.5622 40.8698C73.4947 40.8247 73.4232 40.7863 73.3485 40.755C72.4597 40.3295 71.2793 40.111 69.8064 40.111C68.018 40.111 66.669 40.5941 65.7698 41.5709C65.0504 42.3525 64.7016 43.3064 64.7016 44.4331C64.7016 45.8363 65.3759 46.8474 66.7481 47.5028C67.2654 47.7556 68.5246 48.1121 70.5267 48.549C71.8649 48.8479 72.5388 49.2734 72.5388 49.8137C72.5388 50.1359 72.4046 50.4115 72.1122 50.6643C71.7407 50.9861 71.1782 51.1474 70.4252 51.1474C69.4242 51.1474 68.7159 50.9751 68.3 50.6419C67.8834 50.3201 67.6697 49.8488 67.6697 49.251H64.2514C64.2514 50.8375 64.9038 52.0213 66.2192 52.8025C67.2654 53.4118 68.6372 53.7225 70.3357 53.7225C71.471 53.7225 72.4829 53.5269 73.3489 53.148C73.5291 53.0675 73.6869 52.9867 73.8555 52.8948C75.1937 52.1365 75.8684 50.9293 75.8684 49.2743C75.868 47.9164 75.1813 46.9045 73.7987 46.2381ZM11.4105 41.3524C10.3356 40.64 9.08197 40.2607 7.8009 40.2605H7.76695C4.11261 40.2833 1.13257 43.3412 1.13257 47.0887C1.13257 50.8367 4.11261 53.8941 7.76695 53.9173H7.8009C9.12794 53.9173 10.3647 53.5151 11.4105 52.8254V53.538H14.4804V40.6051H11.4105V41.3524ZM11.4105 47.8017C11.0845 49.5262 9.58852 50.8477 7.8009 50.8477H7.76695C5.76561 50.8248 4.13498 49.1464 4.13498 47.0887C4.13498 45.0314 5.76561 43.353 7.76695 43.3412H7.8009C9.58892 43.3412 11.0845 44.652 11.4105 46.3761V47.8017ZM30.5722 39.2375H33.9122V36.2369H30.5722V39.2375ZM30.5722 53.5376H33.9122V40.2605H30.5722V53.5376ZM25.9731 41.3524C24.8981 40.6399 23.6443 40.2607 22.3631 40.2605H22.3296C18.6637 40.2833 15.6836 43.3412 15.6836 47.0887C15.6836 50.8367 18.6633 53.8941 22.3296 53.9173H22.3631C23.6444 53.9173 24.8982 53.538 25.9731 52.8254V53.538H29.0431V36.1683H25.9731V41.3524ZM25.9731 47.8017C25.6472 49.5262 24.1512 50.8477 22.3631 50.8477H22.3296C20.3167 50.8248 18.686 49.1464 18.686 47.0887C18.686 45.0314 20.3167 43.353 22.3296 43.3412H22.3631C24.1512 43.3412 25.6468 44.652 25.9731 46.3761V47.8017ZM45.3817 36.1679L41.7609 29.9836L32.8664 14.8554L22.3296 21.339L21.9697 21.5571L22.3296 22.1663L30.5606 36.1679H45.3817Z" fill="black"/>
</g>
<defs>
<clipPath id="clip0_12423_21793">
<rect width="77" height="57" fill="white"/>
</clipPath>
</defs>
</svg>
