<svg width="58" height="58" viewBox="0 0 58 58" fill="none" xmlns="http://www.w3.org/2000/svg">
<g clip-path="url(#clip0_12435_17274)">
<path d="M45.8667 29.1995C45.8667 38.6313 38.2319 46.2662 28.8001 46.2662V29.1995H45.8667ZM28.8001 12.1328V29.1995H11.7334C11.7334 19.7676 19.3682 12.1328 28.8001 12.1328Z" fill="#0166B1"/>
<path d="M28.8001 12.1328C38.2319 12.1328 45.8667 19.7676 45.8667 29.1995H28.8001V12.1328ZM11.7334 29.1995H28.8001V46.2662C19.3682 46.2662 11.7334 38.6313 11.7334 29.1995Z" fill="white"/>
<path d="M28.8 12.1337V13.0695C37.6938 13.0695 44.9309 20.3049 44.9309 29.2004H45.8667C45.8667 19.7753 38.2251 12.1337 28.8 12.1337ZM28.8 45.3313C19.9062 45.3313 12.6691 38.0958 12.6691 29.2004H11.7333C11.7333 38.6255 19.3749 46.2671 28.8 46.2671V45.3313ZM28.8 0.400391C12.8946 0.400391 0 13.295 0 29.2004C0 45.1058 12.8946 58.0004 28.8 58.0004C44.7054 58.0004 57.6 45.1058 57.6 29.2004C57.6 13.295 44.7054 0.400391 28.8 0.400391ZM55.7272 29.2004C55.7272 44.0711 43.6724 56.1276 28.8 56.1276C13.9276 56.1276 1.87281 44.0711 1.87281 29.2004C1.87281 14.3296 13.9293 2.2732 28.8 2.2732C43.6707 2.2732 55.7272 14.3296 55.7272 29.2004Z" fill="#6F6F6F"/>
<path d="M16.4926 15.3058C17.4129 14.3431 17.934 13.2309 17.0137 12.1691C16.5129 11.5928 15.6721 11.4668 14.9751 11.7507L14.9057 11.7776L14.9277 11.7171C15.0309 11.4433 15.0969 10.5696 14.3475 9.96647C13.982 9.67245 13.5236 9.56325 13.06 9.61029C12.1955 9.69765 11.5307 10.284 9.72049 12.2884C9.17406 12.8932 8.37893 13.8475 7.90186 14.4658L12.8739 19.1499C14.5217 17.3387 15.1933 16.665 16.4926 15.3058ZM10.0047 14.16C11.0062 12.9436 12.0703 11.8398 12.5525 11.403C12.7048 11.2652 12.8705 11.1274 13.0719 11.0737C13.3984 10.9846 13.735 11.2148 13.8112 11.5474C13.8873 11.8818 13.6758 12.1993 13.4407 12.4614C12.9111 13.0545 10.969 15.0723 10.969 15.0723L10.0047 14.16ZM11.9519 15.9947C11.9519 15.9947 13.8433 14.0088 14.4608 13.3737C14.7061 13.1217 14.8634 12.9688 15.0326 12.8865C15.2508 12.7806 15.4894 12.7588 15.7025 12.8999C15.9123 13.0394 16.0088 13.2796 15.9563 13.5182C15.8937 13.8021 15.6603 14.0726 15.4674 14.2793C15.2069 14.5565 12.9636 16.9406 12.9602 16.9439L11.9519 15.9947ZM29.3686 9.71949L30.9605 6.17785L31.062 5.86367L31.0333 6.19129L31.2007 10.9241C31.759 10.9762 32.3359 11.0535 32.9043 11.1476L32.6455 4.13821C31.8504 4.05084 31.0586 3.98868 30.2669 3.95508L28.6986 7.82098L28.6428 8.10828L28.587 7.82098L27.0204 3.95508C26.2287 3.98868 25.4369 4.05084 24.6418 4.13821L24.383 11.1476C24.9514 11.0535 25.5283 10.9779 26.0866 10.9241L26.254 6.19129L26.2253 5.86367L26.3268 6.17785L27.9187 9.71949H29.3686H29.3686ZM42.5896 17.0464C42.9804 17.4631 43.5438 18.1351 43.8602 18.5434L49.6866 14.8707C49.3956 14.4927 48.932 13.9181 48.5852 13.5132L44.8955 15.9359L44.6434 16.1509L44.8312 15.8787L46.4604 12.6496L45.3083 11.5054L42.055 13.1234L41.781 13.3099L41.9992 13.0595L44.4404 9.39692C44.0107 9.03401 43.5979 8.70136 43.0718 8.29813L39.3736 14.0793C39.8422 14.4372 40.4597 14.9631 40.8539 15.3209L44.3355 13.5266L44.5588 13.3636L44.3947 13.5854L42.5896 17.0464Z" fill="#6F6F6F"/>
</g>
<defs>
<clipPath id="clip0_12435_17274">
<rect width="57.6" height="57.6" fill="white" transform="translate(0 0.400391)"/>
</clipPath>
</defs>
</svg>
