<svg width="52" height="52" viewBox="0 0 52 52" fill="none" xmlns="http://www.w3.org/2000/svg">
<g clip-path="url(#clip0_10477_14585)">
<path d="M25.6001 50.8243C39.3102 50.8243 50.4244 39.7101 50.4244 26C50.4244 12.29 39.3102 1.17578 25.6001 1.17578C11.8901 1.17578 0.775879 12.29 0.775879 26C0.775879 39.7101 11.8901 50.8243 25.6001 50.8243Z" fill="#FFAF21"/>
<path d="M51.2 25.9999C51.2 20.9367 49.6986 15.9872 46.8856 11.7773C44.0727 7.56741 40.0745 4.2862 35.3967 2.3486C30.7189 0.410994 25.5716 -0.0959712 20.6057 0.891811C15.6398 1.87959 11.0783 4.31776 7.49808 7.89798C3.91786 11.4782 1.47969 16.0397 0.491909 21.0056C-0.495874 25.9715 0.0110921 31.1188 1.9487 35.7966C3.8863 40.4744 7.16751 44.4726 11.3774 47.2855C15.5873 50.0985 20.5368 51.5999 25.6 51.5999C32.3896 51.5999 38.901 48.9028 43.7019 44.1018C48.5028 39.3009 51.2 32.7895 51.2 25.9999ZM49.9479 25.9999C49.9476 30.8154 48.5194 35.5227 45.8439 39.5265C43.1683 43.5302 39.3655 46.6508 34.9165 48.4934C30.4675 50.336 25.5719 50.8179 20.849 49.8783C16.1261 48.9386 11.7879 46.6195 8.38291 43.2144C4.97791 39.8092 2.65916 35.4708 1.71981 30.7478C0.780466 26.0249 1.26272 21.1294 3.10561 16.6805C4.94849 12.2315 8.0692 8.42899 12.0732 5.75369C16.0772 3.07838 20.7845 1.65044 25.6 1.65044C28.7975 1.65054 31.9637 2.28043 34.9178 3.50417C37.8719 4.7279 40.556 6.5215 42.8169 8.78258C45.0778 11.0436 46.8713 13.7279 48.0948 16.682C49.3183 19.6362 49.948 22.8024 49.9479 25.9999ZM43.9296 27.3808V18.6659C43.8707 18.3073 43.9469 17.9397 44.1436 17.6341C44.3402 17.3286 44.6432 17.1069 44.9939 17.012L46.2041 16.6016V13.3473L43.1011 14.3977C42.3843 14.5767 41.7559 15.0081 41.3314 15.6128C40.9068 16.2175 40.7143 16.955 40.7893 17.69V40.5283L43.9273 39.464V31.8181C43.8962 31.4477 44.0051 31.0791 44.2326 30.7852C44.4601 30.4913 44.7897 30.2935 45.1561 30.2309L46.2181 29.8725V26.605L43.9296 27.3808ZM38.0819 19.3571L39.7265 18.8016V15.5435L36.1868 16.7405C35.4703 16.9198 34.8422 17.3511 34.4177 17.9556C33.9932 18.56 33.8005 19.2971 33.875 20.032V42.8765L37.0145 41.8106V34.1671C36.9841 33.7964 37.0935 33.4279 37.3212 33.1338C37.5489 32.8398 37.8784 32.6416 38.2448 32.5783L39.3061 32.2192V28.9517L37.0153 29.7274V21.0118C36.9569 20.6528 37.0336 20.2848 37.2308 19.9792C37.428 19.6735 37.7315 19.4519 38.0827 19.3571H38.0819ZM28.5479 35.8567L32.1939 34.6248V18.0926L30.1428 18.7947C29.8005 18.8956 29.5044 19.1133 29.3059 19.4099C29.1075 19.7066 29.0194 20.0634 29.0568 20.4183V32.4177L27.8986 32.8056C27.7817 32.8504 27.655 32.8636 27.5313 32.8438C27.4077 32.8241 27.2914 32.7721 27.1942 32.6931C27.0619 32.5464 26.9623 32.3734 26.9019 32.1854C26.8414 31.9974 26.8215 31.7987 26.8435 31.6024V19.9009L24.7994 20.5921C24.4648 20.688 24.1732 20.8962 23.974 21.1818C23.7748 21.4672 23.68 21.8127 23.7056 22.1599V32.2448C23.6933 32.7951 23.793 33.3422 23.9987 33.8528C24.2043 34.3634 24.5115 34.8269 24.9018 35.2151C25.4083 35.6167 26.007 35.8857 26.6436 35.9977C27.2802 36.1097 27.9347 36.0612 28.5479 35.8567ZM22.4388 31.2557V27.3559C22.4388 24.806 21.3861 23.2646 19.1302 21.824L18.4258 21.364L19.1674 20.1429C20.4792 17.9879 21.2387 15.2634 19.432 12.7732C18.1077 10.944 15.4717 10.7524 12.973 11.5995L4.40398 14.4954C4.40398 14.4954 8.23001 14.7165 8.23001 17.9615V42.7283L17.2288 39.685C21.8934 38.1087 22.4388 35.4649 22.4388 31.2557ZM16.4057 18.7854L11.5247 26.7982V15.3806L14.3756 14.4116C15.5446 14.0199 16.4236 14.2565 16.9232 14.9392C17.7369 16.0454 17.1931 17.4929 16.4057 18.7838V18.7854ZM19.1294 31.8848C19.1294 34.1997 18.5926 35.9056 16.3615 36.6526L11.5247 38.2864V32.7009L16.6943 24.2032L17.3265 24.609C17.9178 24.9507 18.4006 25.4522 18.7195 26.0561C19.0384 26.6598 19.1805 27.3413 19.1294 28.0223V31.8848ZM44.8287 45.2278C44.6471 45.4027 44.5034 45.613 44.4065 45.8458C44.3096 46.0785 44.2616 46.3287 44.2655 46.5808C44.2617 46.834 44.3094 47.0852 44.4057 47.3194C44.502 47.5536 44.6449 47.7657 44.8256 47.943C45.0947 48.2117 45.4374 48.3946 45.8104 48.4685C46.1834 48.5423 46.57 48.5039 46.9212 48.3581C47.2723 48.2123 47.5724 47.9656 47.7833 47.6492C47.9943 47.3328 48.1067 46.961 48.1063 46.5808C48.1114 46.3286 48.064 46.078 47.967 45.845C47.8701 45.6121 47.7257 45.4019 47.5431 45.2278C47.3659 45.0476 47.1547 44.9045 46.9215 44.8067C46.6884 44.709 46.4382 44.6587 46.1855 44.6587C45.9328 44.6587 45.6826 44.709 45.4495 44.8067C45.2164 44.9045 45.0051 45.0476 44.8279 45.2278H44.8287ZM44.5285 46.5831C44.5309 46.1999 44.666 45.8294 44.9108 45.5346C45.1556 45.2399 45.495 45.0391 45.8712 44.9664C46.2475 44.8937 46.6373 44.9537 46.9743 45.1361C47.3113 45.3185 47.5746 45.6121 47.7195 45.9668C47.8644 46.3216 47.8819 46.7155 47.7689 47.0817C47.656 47.4479 47.4197 47.7636 47.1001 47.9751C46.7806 48.1866 46.3977 48.2808 46.0165 48.2417C45.6353 48.2026 45.2794 48.0327 45.0095 47.7607C44.8538 47.6072 44.7309 47.4237 44.6482 47.2212C44.5655 47.0188 44.5248 46.8017 44.5285 46.5831ZM46.1436 45.5187H45.4051V47.6304H45.7821V46.8011H46.0722C46.2146 46.7873 46.358 46.8115 46.488 46.8709C46.5607 46.9261 46.6173 46.9997 46.652 47.0841C46.6866 47.1686 46.698 47.2608 46.6851 47.3511V47.5171L46.6921 47.5869C46.6964 47.5947 46.6984 47.6037 46.6975 47.6125L46.706 47.6304H47.0497L47.0373 47.604C47.0267 47.5701 47.0206 47.5348 47.0194 47.4993C47.0194 47.4387 47.0194 47.3844 47.0194 47.3441V47.1889C47.0139 47.0688 46.9729 46.953 46.9015 46.8561C46.8575 46.8001 46.8027 46.7533 46.7404 46.7187C46.678 46.684 46.6094 46.6622 46.5385 46.6544C46.6472 46.6386 46.7523 46.6037 46.8488 46.5513C46.9174 46.506 46.9728 46.4432 47.0094 46.3695C47.0459 46.2957 47.0622 46.2137 47.0567 46.1316C47.0665 46.0198 47.0402 45.9078 46.9814 45.8121C46.9228 45.7165 46.835 45.6422 46.7309 45.6002C46.5451 45.5381 46.3493 45.5117 46.1537 45.5226L46.1436 45.5187ZM46.1025 45.784C46.2565 45.7692 46.4116 45.796 46.5517 45.8616C46.6012 45.8943 46.6406 45.9402 46.6654 45.994C46.6902 46.0479 46.6994 46.1076 46.6921 46.1665C46.6966 46.2375 46.6781 46.308 46.6394 46.3677C46.6007 46.4273 46.5438 46.4729 46.4772 46.4977C46.3607 46.5322 46.2394 46.5473 46.118 46.5427H45.7891V45.7817L46.1025 45.784Z" fill="black"/>
</g>
<defs>
<clipPath id="clip0_10477_14585">
<rect width="51.2" height="51.2" fill="white" transform="translate(0 0.399902)"/>
</clipPath>
</defs>
</svg>
