<svg width="156" height="35" viewBox="0 0 156 35" fill="none" xmlns="http://www.w3.org/2000/svg">
<g clip-path="url(#clip0_12435_17245)">
<path fill-rule="evenodd" clip-rule="evenodd" d="M95.3246 31.9949C95.5805 32.3911 97.5031 32.171 97.887 32.083C98.7401 31.8628 98.5269 31.2025 98.5269 29.9667C98.5269 29.1302 98.4416 28.3347 98.4416 27.4982C98.4416 27.058 98.4842 26.6618 98.4416 26.2184C98.3562 22.8663 99.0814 20.3098 100.577 18.5017C101.604 17.2219 102.841 16.7817 103.055 16.7376C103.865 16.5616 104.337 16.7817 104.465 17.398C104.679 18.3225 104.465 19.074 103.868 19.6904C103.015 20.5708 102.585 20.2186 101.817 20.1746C101.306 20.1746 101.306 20.3947 101.817 20.879C103.911 22.8192 106.945 22.2909 107.329 22.2469C110.919 21.7626 113.054 19.203 113.524 19.1149C113.993 19.0269 113.31 21.0551 114.806 21.8035C116.516 22.5959 120.489 22.1997 122.625 20.3916L123.993 19.1998C124.547 18.7156 124.078 20.4796 126.64 21.8444C129.59 23.4764 134.8 22.1966 134.971 17.964C135.013 16.7282 133.986 16.1559 135.269 15.8918C137.149 15.5396 136.552 15.7597 138.176 19.2438C138.602 20.1683 138.901 20.7438 139.029 20.9639C139.328 21.4922 139.669 22.2437 140.525 22.0676C141.637 21.8035 143.645 19.5111 143.816 19.247L144.885 17.8791C145.013 17.747 145.184 17.7911 145.397 18.0552L148.346 21.6274C148.645 21.9796 149.029 22.1117 149.586 22.1117C150.184 22.1117 150.912 21.8035 151.765 21.2312C153.304 20.2155 154.455 19.247 155.184 18.3225C155.994 17.3068 156.253 16.6024 155.909 16.3383C155.098 15.6339 153.73 17.3068 152.703 17.8382C149.97 19.1181 148.474 14.3101 147.405 13.6937C146.594 13.2535 145.44 13.7818 143.944 15.2817L142.618 16.6056C142.106 17.1339 141.722 15.2817 141.335 14.5333C141.037 14.0051 140.781 13.6529 140.568 13.5176C139.842 13.1655 135.568 14.5333 133.091 14.6214L131.125 14.7094C130.486 14.7534 131.253 15.6339 131.381 16.3414C131.637 17.8414 131.083 19.3413 130.227 19.5614C128.688 19.9576 128.261 17.4011 128.389 16.5175C128.688 14.3132 130.952 13.961 131.122 13.873C131.549 13.5648 131.122 13.2126 130.138 13.0806C126.421 12.6403 125.138 16.7408 120.995 19.0772C117.789 20.8853 118.731 18.5929 118.603 17.181C118.347 13.873 119.672 13.6529 115.525 13.7849C115.227 13.7849 114.243 13.6529 113.987 14.3572C113.56 15.461 114.328 15.593 113.347 16.7817C112.149 18.2376 110.827 19.1181 109.374 19.4702C107.238 19.9545 108.219 18.8979 108.435 18.2344C108.606 17.7062 108.691 17.2659 108.734 16.9106C108.862 15.3666 106.939 13.6026 103.819 14.09C101.086 14.4862 98.9473 16.9986 98.862 17.0427L98.6914 17.1307H98.6061C98.5634 17.1307 98.5634 16.7785 98.5634 16.071C98.6061 14.395 98.8194 13.9988 97.4087 13.9547C95.742 13.8667 95.6567 14.1749 95.4008 14.527C94.9315 15.0993 94.6756 15.8069 94.246 16.3792C93.0486 18.0552 92.1528 18.8036 91.5983 18.5835C91.257 18.4514 87.7105 14.2629 86.9853 14.0868C86.3455 13.9547 85.7452 14.2189 85.1907 14.8792L82.8842 17.8319C82.7136 18.0521 82.4577 18.008 82.2017 17.6559L79.9805 14.7031C79.554 14.1749 78.3139 13.6875 77.3328 14.9233L74.9837 17.9231C74.8557 18.0992 74.6424 18.0552 74.3865 17.747L71.7814 14.483C71.6961 14.395 71.1416 13.9547 70.4987 14.2189C69.9015 14.439 68.3201 16.115 66.9521 17.3508C66.4402 17.7911 66.0137 18.3193 65.4561 18.7627L65.2428 18.8948C64.7309 19.1589 64.2587 18.0583 63.8321 17.5269C62.979 16.4672 62.4214 15.8949 62.0801 15.8069C60.4988 15.3226 60.6694 17.747 60.4135 18.5835C59.7737 20.5237 57.2082 20.6998 57.1655 18.6275C57.1655 16.2471 60.1149 15.2314 60.2855 15.1434C60.5415 14.9673 60.968 14.483 60.0296 14.395C58.1923 14.2189 56.2271 14.8792 54.0486 16.3351L50.502 18.8036C48.9207 19.9073 47.769 15.9389 47.3394 15.2314C47.1261 14.9233 46.7848 14.1277 45.6727 14.395C45.2035 14.527 44.4326 15.0993 43.3236 16.115L41.4863 17.8791C41.3584 18.0112 41.2304 17.9672 41.1451 17.7911C41.0598 17.615 40.9318 16.3792 40.8891 14.0868C40.8465 12.6749 40.9318 11.2662 40.8465 9.89829C40.8038 9.10587 40.7185 9.06185 40.8465 7.29776C40.8465 7.12167 40.8891 6.9896 40.8891 6.81351C40.8891 6.19718 40.4199 6.32925 39.2651 6.28523C38.1957 6.2412 37.3852 6.10913 37.3852 6.81351L37.1293 12.8982C36.9587 16.7785 37.0866 19.4671 37.5559 20.879C37.8971 22.0267 38.409 22.6431 39.1372 22.7311C41.1024 23.0393 42.897 20.1306 43.1956 19.7784C43.4516 19.5143 43.7075 19.1181 44.2224 19.6904C44.5637 20.0866 44.7343 20.6149 45.0755 21.0582C46.2303 22.6902 46.6569 22.6902 47.8086 22.6902C49.8591 22.6462 51.9523 20.4419 52.4216 20.2218C53.0187 19.9136 52.9334 20.574 53.0614 20.8381C53.5733 22.25 55.4105 23.2626 57.5891 22.7783C60.2794 22.162 60.3221 20.706 61.1783 21.0142C61.7328 21.1903 62.3757 23.0865 63.826 22.9104C64.6365 22.8223 66.5164 21.0582 67.7138 20.1778C68.5669 19.5174 69.0819 19.1621 69.2098 19.074C70.0203 18.5898 70.1056 19.7344 71.9855 21.9387C72.668 22.7311 73.4389 23.5267 75.0629 21.8066L77.4973 19.2941C78.0519 18.7218 78.7801 20.53 80.4894 22.294C80.6173 22.4261 80.7027 22.5582 80.8306 22.6462C81.3852 23.0424 82.1134 22.6902 83.0944 21.5425L85.017 19.2941C85.1876 19.1181 85.4009 19.1621 85.6995 19.4262C86.8116 20.4859 88.134 22.6462 89.2461 22.7343C90.2302 22.8223 91.5526 22.162 93.2619 20.7501L94.8859 19.3822C95.3977 18.942 95.0565 20.3979 95.2698 23.3946C95.3551 24.3631 95.3551 25.5549 95.3124 26.8788C94.8554 29.2183 95.2393 31.9069 95.3246 31.9949Z" fill="#203061"/>
<path fill-rule="evenodd" clip-rule="evenodd" d="M14.7042 25.1626C16.8401 25.4268 18.9759 25.4268 21.1545 25.2067C23.1197 24.9865 24.7437 24.6784 26.0691 24.2822C30.0848 23.0464 32.9489 20.9301 34.3139 19.21C35.3407 17.9302 33.9727 18.8138 33.1591 19.122C30.6394 20.1377 28.0313 20.8421 25.3835 21.2823C22.9491 21.6785 23.2903 21.5024 23.2903 20.5339C23.205 16.2133 23.4609 11.8927 23.333 7.61616C23.2903 6.4684 23.333 6.51243 24.5731 6.64764C26.8369 6.86776 29.2713 7.44006 31.8795 8.3677C32.3487 8.54379 34.3566 9.69154 33.2048 7.83942C30.6851 3.87102 22.6535 2.94652 19.9601 2.85533C3.51001 2.239 -4.64952 13.0405 2.87016 20.2729C5.64587 22.9112 9.61899 24.5872 14.7042 25.1626Z" fill="#203061"/>
<path fill-rule="evenodd" clip-rule="evenodd" d="M11.4988 6.55258C11.7974 6.46454 12.0533 6.42051 12.3519 6.46454C12.7358 6.50856 12.7358 6.68465 12.7785 6.99282L12.7358 20.9703C12.7358 21.1464 12.6932 21.2344 12.6079 21.3224C12.3946 21.4545 10.2587 21.1904 9.14663 20.8382C7.73592 20.398 4.83225 19.1181 3.63483 16.5176C2.99499 15.1057 3.03764 13.4737 3.12295 13.1215C3.76584 9.33235 7.73897 7.08401 11.4988 6.55258Z" fill="#EC1C24"/>
<path fill-rule="evenodd" clip-rule="evenodd" d="M115.147 12.2426C115.745 12.4187 118.225 12.4628 118.523 10.6106C118.822 8.75851 115.833 7.74597 114.124 9.1107C113.14 9.86224 112.884 11.6703 115.147 12.2426Z" fill="#203061"/>
<path fill-rule="evenodd" clip-rule="evenodd" d="M152.146 12.2424C152.999 12.2424 153.684 11.538 153.684 10.6544C153.684 9.77078 153.002 9.06641 152.146 9.06641C151.292 9.06641 150.607 9.77078 150.607 10.6544C150.61 11.494 151.292 12.2424 152.146 12.2424Z" fill="#203061"/>
<path fill-rule="evenodd" clip-rule="evenodd" d="M152.146 12.0218C151.421 12.0218 150.82 11.4055 150.82 10.6979C150.82 9.94955 151.417 9.33008 152.103 9.33008C152.828 9.33008 153.428 9.9464 153.428 10.6979C153.471 11.4055 152.874 12.0218 152.146 12.0218Z" fill="white"/>
<path fill-rule="evenodd" clip-rule="evenodd" d="M151.463 11.5383H151.804V10.7899H152.146C152.316 10.7899 152.444 10.922 152.444 11.2301C152.444 11.4502 152.444 11.4502 152.487 11.5383H152.828C152.785 11.3622 152.828 11.1861 152.785 11.01C152.743 10.8339 152.615 10.7018 152.487 10.7018C152.7 10.6578 152.828 10.4817 152.828 10.2616C152.828 9.99746 152.615 9.77734 152.316 9.77734H151.463V11.5383Z" fill="#203061"/>
<path fill-rule="evenodd" clip-rule="evenodd" d="M151.847 10.5654V10.0371H152.274C152.444 10.0371 152.53 10.1692 152.53 10.3012C152.53 10.4333 152.402 10.5654 152.274 10.5654H151.847Z" fill="white"/>
</g>
<defs>
<clipPath id="clip0_12435_17245">
<rect width="156" height="35" fill="white"/>
</clipPath>
</defs>
</svg>
