<svg width="128" height="48" viewBox="0 0 128 48" fill="none" xmlns="http://www.w3.org/2000/svg">
<g clip-path="url(#clip0_12814_17520)">
<path fill-rule="evenodd" clip-rule="evenodd" d="M121.622 4.73721C118.989 2.10332 115.499 0.65332 111.797 0.65332H13.9081C6.239 0.65332 0 6.89229 0 14.5614V33.9558C0 37.6583 1.45067 41.1476 4.08395 43.7807C6.71727 46.4139 10.2059 47.864 13.9081 47.864H111.797C115.499 47.864 118.989 46.4139 121.622 43.7807C124.254 41.1476 125.705 37.6583 125.705 33.9558V14.5614C125.705 10.8592 124.254 7.37056 121.622 4.73721Z" fill="#0072BA"/>
<path fill-rule="evenodd" clip-rule="evenodd" d="M35.8303 6.7782H35.838V6.77246L35.8303 6.7782Z" fill="#161413"/>
<path fill-rule="evenodd" clip-rule="evenodd" d="M76.2385 25.0471C76.9333 20.9797 80.3783 17.8642 84.5248 17.8642C88.6877 17.8642 92.1443 20.9551 92.8193 25.0471H76.2385ZM96.3726 26.535C96.3726 19.992 91.0682 14.6875 84.5248 14.6875C77.9815 14.6875 72.6777 19.992 72.6777 26.535C72.6777 33.0777 77.9815 38.3821 84.5248 38.3821C88.7844 38.3821 92.5189 36.1351 94.6072 32.761L91.5865 31.2523C90.0854 33.6321 87.4835 35.2061 84.5248 35.2061C80.4103 35.2061 76.9857 32.1957 76.2556 28.1737H96.2555C96.3324 27.6275 96.3726 27.1024 96.3726 26.535Z" fill="white"/>
<path fill-rule="evenodd" clip-rule="evenodd" d="M54.3991 14.8799H57.9356V30.5421C57.9356 30.5421 57.7534 38.5553 49.0114 38.5553C40.2695 38.5553 40.2695 30.1777 40.2695 30.1777V14.8799H44.0941V28.3565C44.0941 28.3565 43.3658 34.9127 49.0114 34.9127C54.6571 34.9127 54.3991 31.3615 54.3991 29.1758V14.8799Z" fill="white"/>
<path fill-rule="evenodd" clip-rule="evenodd" d="M61.9119 14.8799H66.1509L66.11 17.591C66.11 17.591 67.1828 15.001 69.7934 15.001C72.1412 15.001 73.3549 16.2355 73.5974 16.4377C73.5974 16.4377 71.6753 19.7361 71.5745 19.8578C71.473 19.9789 70.8056 18.7849 69.4495 18.7849C67.588 18.7849 66.232 20.3633 66.232 21.8207V37.3409H61.9119V14.8799Z" fill="white"/>
<path fill-rule="evenodd" clip-rule="evenodd" d="M111.797 2.85938H13.908C7.47212 2.85938 2.20618 8.12532 2.20618 14.5612V33.9557C2.20618 40.3921 7.47212 45.6577 13.908 45.6577H111.797C113.74 45.6577 115.574 45.1755 117.191 44.3289L114.975 40.8505L106.319 26.11L113.482 14.8797H109.233L104.376 22.65L99.6413 14.8797H95.27L102.069 26.5957L95.2094 37.3407H99.3375L103.891 30.0564L111.153 41.7039C111.114 41.7046 111.075 41.7052 111.036 41.7052H15.2156C9.96373 41.7052 5.66624 37.4082 5.66624 32.1562V16.3278C5.66624 11.0759 9.96373 6.77837 15.2156 6.77837H31.7098V17.543C29.6059 15.7332 26.8716 14.637 23.8791 14.637C17.241 14.637 11.8594 20.0187 11.8594 26.657C11.8594 33.295 17.241 38.6757 23.8791 38.6757C26.8716 38.6757 29.6059 37.5798 31.7098 35.7708V37.3407H35.8383V6.77837H111.036C116.288 6.77837 120.586 11.0759 120.586 16.3278V32.1562C120.586 34.6497 119.613 36.9239 118.034 38.6294L120.244 42.0295C122.256 39.9255 123.499 37.0799 123.499 33.9557V14.5612C123.499 8.12532 118.233 2.85938 111.797 2.85938ZM23.8272 35.2763C19.0668 35.2763 15.2077 31.4172 15.2077 26.657C15.2077 21.8963 19.0668 18.0372 23.8272 18.0372C28.5876 18.0372 32.4467 21.8963 32.4467 26.657C32.4467 31.4172 28.5876 35.2763 23.8272 35.2763Z" fill="white"/>
<path fill-rule="evenodd" clip-rule="evenodd" d="M124.721 5.40891C125.443 5.40891 126.122 5.12755 126.633 4.61672C127.144 4.10589 127.425 3.42676 127.425 2.70445C127.425 1.98208 127.144 1.30302 126.633 0.792191C126.122 0.281364 125.443 0 124.721 0C123.23 0 122.017 1.21318 122.017 2.70445C122.017 3.42676 122.298 4.10589 122.809 4.61672C123.319 5.12755 123.998 5.40891 124.721 5.40891ZM122.389 2.70241C122.389 2.07988 122.632 1.49454 123.072 1.05421C123.512 0.613878 124.097 0.371814 124.72 0.371814C125.343 0.371814 125.928 0.613878 126.368 1.05421C126.808 1.49454 127.051 2.07988 127.051 2.70241C127.051 3.98813 126.005 5.03376 124.72 5.03376C124.097 5.03376 123.512 4.79163 123.072 4.35129C122.632 3.91103 122.389 3.32569 122.389 2.70241Z" fill="#0072BA"/>
<path fill-rule="evenodd" clip-rule="evenodd" d="M126.089 4.0781H125.18L124.491 2.99726H124.483V4.0781H123.752V1.26855H124.845C125.399 1.26855 125.821 1.53323 125.821 2.13321C125.821 2.52035 125.605 2.85559 125.206 2.9267L126.089 4.0781ZM124.483 2.52764H124.554C124.792 2.52764 125.061 2.4831 125.061 2.17776C125.061 1.87181 124.792 1.82726 124.554 1.82726H124.483V2.52764Z" fill="#0073BB"/>
</g>
<defs>
<clipPath id="clip0_12814_17520">
<rect width="127.788" height="48" fill="white"/>
</clipPath>
</defs>
</svg>
