<svg width="98" height="42" viewBox="0 0 98 42" fill="none" xmlns="http://www.w3.org/2000/svg">
<g clip-path="url(#clip0_12423_21709)">
<path d="M19.3466 2.19162C19.2525 2.19388 19.1584 2.19076 19.0647 2.18228C18.8896 2.17703 18.7729 2.16186 18.7858 2.13852C18.7858 2.10525 19.2071 1.64656 20.0113 1.64656C20.1945 1.64656 20.697 1.65065 21.0033 1.65765C21.0249 1.65765 20.8674 1.74577 20.6328 1.85957C20.2972 2.02063 19.7913 2.20037 19.3489 2.19162H19.3466ZM10.6916 7.35508C10.6167 7.25957 10.5318 7.17232 10.4383 7.0948C10.0678 6.70964 10.251 6.19785 10.4442 5.89906C11.005 5.0237 12.0834 4.05614 12.0834 4.05614C12.1079 4.03019 12.1245 3.99782 12.1313 3.9628C12.1382 3.92778 12.1349 3.89155 12.1219 3.85831C11.9387 3.42705 12.2719 3.03839 12.2719 3.03839C14.3004 0.211558 20.7507 0.0359019 20.7507 0.0359019C32.8464 -0.587354 50.9692 7.11056 50.9692 7.11056C60.1897 10.7486 66.5419 13.6863 66.5419 13.6863C72.014 16.3707 82.7745 22.4982 86.1172 23.9484C86.1172 23.9484 87.8633 24.6872 90.0307 24.0546C91.0408 23.7482 91.7143 23.0701 92.3119 22.9394C92.3119 22.9394 93.5735 22.6132 94.0322 23.6239C94.1968 23.9904 94.1489 24.588 93.7218 25.2667C92.0533 28.1676 87.7512 27.8764 85.8435 27.4306C86.5199 27.9237 86.7773 28.5184 86.8648 29.1177C86.8648 29.1177 86.0268 30.4436 85.2804 30.7879C83.1795 31.7438 81.5945 29.9831 79.8783 28.3509C78.6312 27.1592 78.2168 27.0197 77.4815 26.6346C75.7746 25.7359 74.1073 25.8275 72.0543 25.9489L68.6801 26.2535C61.2226 26.8989 59.0809 21.5406 57.3827 18.8515C56.9777 18.1856 55.604 17.1772 54.0983 17.0675C53.4302 17.049 52.7617 17.0857 52.0996 17.1772C45.6692 18.0012 43.2182 17.5904 40.6096 16.7325C38.9645 18.7219 34.6146 17.5962 34.6146 17.5962C33.1557 17.2145 26.6634 14.9538 25.9194 14.7116C24.8024 14.3469 24.377 15.4819 24.377 15.4819C24.0594 16.2007 23.5662 16.8281 22.9427 17.3065C22.3192 17.7848 21.5855 18.0988 20.809 18.2195C20.809 18.2195 18.2763 17.3441 19.5199 14.7939C19.9868 13.8146 21.6283 11.4272 24.1791 10.9686C25.072 10.8127 26.2479 10.5694 27.2376 10.5017C23.7811 7.74899 21.7521 8.31914 21.6353 8.33256C21.6353 8.33256 19.7831 8.65119 18.459 9.86152C17.9804 10.3015 17.6303 10.8355 17.1751 11.4628C17.1751 11.4628 16.9417 11.8789 16.3173 11.8439C15.4168 11.7961 14.4796 11.1635 14.4796 11.1635C14.2578 10.9948 14.3629 10.5898 14.4557 10.4725C14.5111 10.3681 14.6208 10.1883 14.6208 10.1883C14.5747 10.036 14.5041 9.84518 14.4557 9.67828C14.3845 9.3684 14.3973 9.29137 14.3973 9.29137C14.3973 9.29137 14.9225 9.59016 15.2061 9.59016C15.2456 9.59133 15.2849 9.58641 15.3228 9.57557C15.7389 9.45302 16.1293 8.61268 16.1515 8.53039C16.5017 7.35508 16.0803 6.52991 15.7208 6.27313C15.2767 5.97026 14.7118 6.21069 14.4953 6.4307C14.2473 6.67113 14.0256 7.14207 13.9065 7.52023C13.8486 7.73134 13.83 7.95132 13.8517 8.16916C13.8919 8.47729 14.1779 8.97041 14.2514 9.22543C14.2514 9.22543 13.6095 9.24002 13.201 8.84027C13.201 8.84027 13.1957 8.94823 12.8473 9.00542C12.0402 9.14256 11.4701 8.56891 11.1894 8.22752C10.9951 8.00051 10.8503 7.62819 10.6928 7.35858L10.6916 7.35508ZM11.2939 6.39568C11.2939 6.39568 10.9641 7.05395 11.4333 7.54941C11.4499 7.57608 11.471 7.59959 11.4958 7.61885C11.4958 7.61885 11.8751 8.08279 12.3927 8.10147C12.479 8.10589 12.5654 8.10335 12.6512 8.09388C12.8199 8.06295 13.1625 7.90889 13.491 7.19926C13.491 7.19926 14.0261 6.00352 14.2736 5.61253C14.2736 5.61253 14.5928 4.98577 15.3042 4.949C15.3042 4.949 16.8215 4.69632 17.2189 6.80827C17.419 7.85345 17.2282 8.64244 15.6362 10.2671C15.6362 10.2671 15.411 10.4871 15.1244 10.7106C15.1244 10.7106 14.954 10.8939 15.0713 11.0701C15.0713 11.0701 15.8107 11.4442 16.1463 11.3987C16.4725 11.3455 16.3995 11.3047 17.9028 9.40342C17.9028 9.40342 20.3585 8.73581 20.062 6.57717C20.062 6.57717 20.0486 5.47539 19.468 4.71616C19.468 4.71616 20.4927 4.73483 21.5105 6.48555C21.5374 6.5269 21.5608 6.57043 21.5805 6.61569C21.5805 6.61569 21.9306 7.49805 22.6584 7.59726C22.6584 7.59726 24.4091 7.82602 26.6231 9.17291C27.1402 9.49212 28.4906 10.3686 28.5799 10.4031C28.2735 9.55806 28.0903 8.57475 28.4293 7.40351C28.4293 7.40351 28.4351 7.40351 28.4351 7.41227C28.4532 7.48054 28.4713 11.0339 34.6292 12.8553C31.7335 12.5635 30.5103 11.4687 28.567 11.2084C27.8241 11.1092 26.8542 11.188 25.6859 11.3018C23.0102 11.5405 21.549 12.3417 20.1151 14.8371C19.077 16.6222 20.9257 17.7117 20.9257 17.7117C21.1864 17.625 21.4401 17.5183 21.6844 17.3925C21.2111 17.3342 19.7422 16.439 21.1592 14.4274C21.1592 14.4274 20.264 16.5049 22.5107 16.9082C22.9379 16.6461 23.7852 15.8046 23.8016 15.0927C24.1132 14.6071 24.6985 13.7948 26.4113 14.299C33.6785 16.3123 34.2895 16.4868 34.8025 16.5895C39.6637 17.5594 40.1206 15.1388 40.1206 15.1388C40.7824 12.8628 38.0005 9.38649 38.0005 9.38649C42.4765 12.9416 48.8619 12.8996 48.8619 12.8996C44.9339 13.7009 40.8046 12.3003 40.1533 12.1019C40.1533 12.1019 41.3286 13.8146 40.9452 15.5058C40.9452 15.5058 43.8047 17.5962 52.1976 16.4098C54.152 16.1343 54.8768 16.4571 54.8768 16.4571C54.972 15.4819 53.2393 13.9856 53.2393 13.9856C54.9959 14.7355 56.7472 16.9817 57.0751 17.413C57.3204 17.7329 57.5455 18.0677 57.7492 18.4155C58.4582 19.5949 61.138 25.2282 67.517 24.7531L70.8019 24.5781C70.8019 24.5781 75.2599 24.1929 77.2475 25.5591C78.5547 26.4683 78.6428 26.6264 79.4202 27.2643C80.4309 28.0953 82.2406 30.3654 84.0852 30.4646C84.628 30.4938 85.1526 30.3088 85.6901 29.8664C83.9277 30.3765 82.8889 29.3015 82.7576 29.1603C84.7254 29.6855 85.5453 29.5034 86.2089 28.8504C86.2515 28.2359 85.4129 27.6074 84.9069 27.3524C83.427 26.6118 82.8807 25.8468 82.1419 25.1132C81.5128 24.497 80.4986 23.0707 79.9063 22.5717C79.2643 22.0343 78.3954 21.4046 76.4463 21.4367C74.4674 21.4676 72.157 21.4863 71.4707 21.3743C70.7593 21.2575 70.3433 21.1636 69.6902 20.6279C69.1569 20.2007 68.805 19.7257 68.4986 19.1777C68.1905 18.642 67.8876 17.9008 67.3209 16.8819C66.9229 16.1904 66.2226 15.6307 66.2226 15.6307C67.1359 16.2102 67.6127 16.4763 68.2856 17.4649C69.6722 19.515 70.7191 20.098 71.5904 20.3915C72.8795 20.8187 76.3377 20.9086 77.7459 21.1029C79.1015 21.2844 79.9209 22.095 80.2552 22.4416C81.0069 23.2189 81.821 24.0038 82.4927 24.6913C84.5883 26.8791 86.9926 27.1248 86.9961 27.1248C88.2339 27.325 90.3721 27.2036 91.4155 26.7525C92.3895 26.3089 93.1942 25.5591 93.3646 25.0017C93.4988 24.6218 93.4562 24.2384 93.1726 23.9513C92.6054 23.3923 91.3367 24.3785 90.6323 24.6516C90.6323 24.6516 88.4614 25.4931 85.3329 24.0885C85.3329 24.0885 74.0262 18.2183 72.9168 17.6172C66.6539 14.2132 56.8581 10.4083 52.9341 8.87528C50.0384 7.7309 45.5052 6.13949 45.5052 6.13949C38.8414 3.83555 34.523 2.61588 34.523 2.61588C35.4672 3.66281 36.7125 6.07063 36.7125 6.07063C32.5808 0.397134 25.1362 1.1161 25.1362 1.1161C22.9373 1.18379 21.2263 2.7571 21.2263 2.7571C21.0599 2.98295 21.406 3.04481 21.406 3.04481C24.1698 3.87932 25.798 7.10473 25.798 7.10473C22.3963 4.38002 20.3789 4.01879 20.3789 4.01879C18.1613 3.70366 18.1327 2.79328 18.1327 2.79328C20.1922 3.24264 21.4317 2.02647 21.7416 1.43064L21.8921 1.16862C18.3545 1.01105 16.7042 1.50592 16.7042 1.50592C13.3486 2.28149 12.8368 3.17494 12.7014 3.38736C12.5456 3.60912 12.531 4.3666 13.3965 4.15768C13.3965 4.16877 13.7519 2.95844 14.7772 2.77694C14.7772 2.77694 15.2907 2.70166 16.3377 2.71859C16.3377 2.71859 15.5971 4.33217 14.0454 4.59653C14.0454 4.59653 13.4881 4.68056 13.3154 4.69573C13.1543 4.72491 11.937 4.93208 11.2909 6.3951L11.2939 6.39568ZM13.7355 4.14134C13.8799 4.12626 14.0228 4.09932 14.1627 4.06081C14.9569 3.91958 15.1589 3.27765 15.1589 3.27765C14.7457 3.27765 14.4819 3.29808 14.4819 3.29808C14.0232 3.34593 13.8435 3.85714 13.8126 3.89566C13.7962 3.94351 13.7355 4.14134 13.7355 4.14134ZM12.234 39.95C12.8076 39.3629 13.0901 38.6258 13.0901 37.4301V33.6801H10.2201V37.192C10.2201 38.2074 9.99249 38.9042 9.48828 39.3997C8.82826 40.0521 7.72998 40.3223 6.10356 40.3223H0.800049V41.3505H6.56166C9.29395 41.3505 11.2192 40.9823 12.2357 39.95H12.234ZM67.59 39.7206L66.176 41.3546H64.5145L71.1964 33.6841H74.0209L80.7028 41.3546H77.4844L76.0728 39.7206H67.59ZM68.4367 38.7227H75.2161L71.8203 34.8005L68.4367 38.7227ZM25.9614 39.7259H17.4581L16.0576 41.3523H14.3955L21.0705 33.6801H23.8984L30.5821 41.3505H27.3678L25.9614 39.7259ZM25.0977 38.7303L21.703 34.8005L18.3218 38.7303H25.0977ZM95.8518 38.0662C95.1329 38.442 94.2213 38.6113 93.1598 38.6352L97.658 41.3523H94.1682L89.8679 38.693H86.1108V41.3517H83.2513V33.6801H92.1304C93.9587 33.6801 94.879 33.7921 95.6318 34.1201C96.4622 34.4813 96.9186 35.1361 96.9186 36.1626C96.9186 36.9323 96.5813 37.6752 95.8536 38.0656L95.8518 38.0662ZM91.7919 37.7283C92.7069 37.7283 93.2053 37.6752 93.5665 37.4295C93.9429 37.1727 94.0527 36.7672 94.0527 36.2758V36.1293C94.0527 35.572 93.9482 35.2236 93.6348 34.9867C93.3045 34.7375 92.8295 34.6441 91.7569 34.6441H86.1108V37.7283H91.7919ZM49.0685 33.6801V37.5054C49.0685 38.4922 49.1712 39.2748 49.6719 39.9185C50.4889 40.9911 51.9858 41.6003 56.1268 41.6003H56.1782C60.3373 41.6003 61.8319 40.9911 62.6401 39.9185C63.1426 39.2765 63.2546 38.4922 63.2546 37.496V33.6801H60.3904V37.3933C60.3904 38.358 60.2603 38.969 59.8897 39.4878C59.2752 40.3585 58.2942 40.6742 56.2786 40.6742H56.0335C54.1153 40.6742 53.0479 40.3585 52.4188 39.4878C52.0523 38.9707 51.9292 38.3872 51.9292 37.3933V33.6801H49.0685ZM38.4586 34.6961H45.6109V33.6801H37.5616C35.6125 33.6801 34.4477 33.9018 33.4066 34.4813C32.4274 35.0264 31.6559 36.0383 31.6559 37.496C31.6559 39.0454 32.3597 40.1805 33.9096 40.795C34.8317 41.1673 36.0601 41.3505 37.6101 41.3505H45.9091V37.8263H43.0496V40.327H38.4843C36.9985 40.327 36.1383 40.1105 35.504 39.6267C34.8953 39.1703 34.5802 38.4642 34.5802 37.5106C34.5802 36.5956 34.8842 35.9151 35.4421 35.4512C36.0875 34.9377 36.9215 34.6978 38.4586 34.6978" fill="#231F20"/>
</g>
<defs>
<clipPath id="clip0_12423_21709">
<rect width="97.6" height="41.6" fill="white"/>
</clipPath>
</defs>
</svg>
