<svg width="201" height="31" viewBox="0 0 201 31" fill="none" xmlns="http://www.w3.org/2000/svg">
<path d="M177.623 30V22.0969C177.623 17.1794 175.23 15.7963 168.353 15.7963H154.815V29.978H163.352V20.3845H165.637C168.159 20.3845 169.065 21.8993 169.065 23.5238V29.978H177.623V30ZM153.198 20.4943V19.9235C153.198 17.5745 151.883 15.7963 145.933 15.7963H137.181C131.64 15.7963 129.355 17.7062 129.355 21.9212V24.4019C129.355 27.9583 131.662 29.978 136.534 29.978H152.142V25.8069H139.53C138.302 25.8069 137.849 25.4118 137.849 24.4678V24.3141H147.658C151.128 24.358 153.198 23.1726 153.198 20.4943ZM145.114 20.8455C145.114 21.4822 144.855 21.8554 143.885 21.8554H137.87V21.3065C137.87 20.5162 138.172 19.9674 139.164 19.9674H143.82C144.575 19.9235 145.114 20.2089 145.114 20.8455ZM123.103 20.0772H128.428V15.7744H117.477C115.709 15.7744 114.61 16.7403 114.61 18.299V29.978H123.125V20.0772H123.103ZM112.756 24.4678V21.3944C112.756 17.838 110.47 15.8183 105.577 15.8183H90.2924V19.9455H102.559C103.788 19.9455 104.24 20.3406 104.24 21.3285V21.4822H94.4315C90.3139 21.4822 88.9342 23.2823 88.9342 25.5654V26.0265C88.9342 27.0582 89.236 27.9364 89.8397 28.5071C91.0253 29.6707 93.3536 30.0219 96.4579 30.0219H104.93C110.47 29.978 112.756 28.6608 112.756 24.4678ZM104.219 24.4678C104.219 25.2581 103.917 25.8069 102.925 25.8069H98.3119C97.5358 25.8069 97.04 25.5874 97.04 24.9508C97.04 24.3141 97.3202 23.919 98.3119 23.919H104.219V24.4678ZM87.6839 30V25.7191H81.1088V13.5352H72.5719V30H87.6839ZM56.8994 30H70.6532V25.7191H59.4001C58.3006 25.7191 57.1796 25.0825 57.1796 22.9969V22.7115C57.1796 20.8455 58.1066 20.0991 59.3138 20.0991H70.6532V15.8183H56.6191C50.9278 15.8183 48.578 18.3648 48.578 22.2505V23.5677C48.5996 28.1339 51.1003 30 56.8994 30ZM38.3165 30H46.8534V13.5352H41.852C39.804 13.5352 38.3381 14.4133 36.9368 15.6427C35.3631 17.0476 29.715 22.009 29.715 22.009V13.5352H24.692C21.8464 13.5352 20.4236 14.545 18.8283 15.7963C17.772 16.6744 1 30 1 30H11.1753L21.1997 21.5919V30H29.3485L38.3381 21.6578L38.3165 30Z" fill="black"/>
<path d="M193.468 1C189.092 1 182.905 2.33914 176.2 4.84179C170.617 6.92733 165.076 9.5617 159.105 13.4254C162.619 11.9765 169.496 10.3301 175.187 10.3301C182.883 10.3301 188.359 13.3376 180.275 23.8312C204.118 7.91522 203.428 1 193.468 1Z" fill="black"/>
</svg>
