<svg width="80" height="40" viewBox="0 0 80 40" fill="none" xmlns="http://www.w3.org/2000/svg">
<g clip-path="url(#clip0_10477_13307)">
<path d="M42.9884 0.135666C42.7257 0.175963 42.4726 1.14308 41.9659 1.64695C41.5945 2.01059 41.1313 1.9877 40.885 2.43741C40.7915 2.60536 40.8205 2.89195 40.7157 3.16694C40.5088 3.71755 39.7789 3.76687 39.7789 4.36649C39.7766 5.01413 40.3875 5.13792 40.9166 5.59763C41.3295 5.96739 41.3698 6.22239 41.8698 6.40163C42.2966 6.54702 42.9317 6.07216 43.5036 6.2427C43.9733 6.38293 44.4227 6.48383 44.5287 6.9661C44.6222 7.41065 44.5226 8.09989 43.953 8.02026C43.7596 7.99898 42.9291 7.71852 41.9066 7.82684C40.6728 7.96707 39.265 8.36971 39.1274 9.74463C39.0516 10.5135 40.0023 11.421 40.9204 11.2359C41.5555 11.1108 41.255 10.3623 41.601 9.99834C42.0542 9.53283 44.6222 11.6247 47.0097 11.6247C48.0145 11.6247 48.7621 11.371 49.5046 10.5931C49.5739 10.5338 49.6586 10.4065 49.766 10.3997C49.8669 10.4074 50.0436 10.507 50.1016 10.5499C52.0245 12.0947 53.4778 15.1931 60.5445 15.2308C61.5381 15.2359 62.6706 15.7108 63.5948 16.5541C64.4191 17.3165 64.9014 18.5022 65.3698 19.7053C66.0767 21.5116 67.3433 23.2672 69.266 25.2214C69.3711 25.3262 70.9529 26.556 71.079 26.6482C71.0993 26.6608 71.2157 26.9384 71.1757 27.0938C71.129 28.2656 70.9588 31.6731 73.4987 31.8272C74.1199 31.8594 73.9571 31.4219 73.9571 31.1215C73.9571 30.528 73.8472 29.9384 74.1606 29.331C74.5883 28.4954 73.2528 28.1102 73.2918 26.3036C73.3195 24.9564 72.1883 25.186 71.6138 24.1595C71.2831 23.5651 70.9887 23.2495 71.0103 22.5222C71.1393 18.4281 70.1399 15.7398 69.6406 15.0793C69.2518 14.5805 68.9297 14.3826 69.286 14.1515C71.4059 12.7511 71.8869 11.448 71.8869 11.448C73.0152 8.79815 74.0284 6.37777 75.4259 5.31233C75.7073 5.09247 76.4297 4.55346 76.8727 4.34134C78.1751 3.72626 78.863 3.35391 79.2418 2.98512C79.8414 2.40066 80.3146 1.18241 79.7402 0.443856C79.0258 -0.467814 77.7882 0.25559 77.2444 0.578608C73.3469 2.89195 72.7724 6.97223 71.4226 9.31491C70.3456 11.1873 68.5945 12.5622 67.029 12.6744C65.8546 12.7617 64.5896 12.5241 63.3295 11.9713C60.267 10.6279 58.5887 8.89325 58.1935 8.58635C57.3701 7.95127 50.9791 1.67758 45.8015 1.42129C45.8015 1.42129 45.159 0.134699 44.9955 0.1131C44.6184 0.0660335 44.2293 0.882926 43.953 0.976414C43.6915 1.06345 43.2525 0.0915009 42.9884 0.134376L42.9884 0.135666ZM20.1941 37.5783C19.7067 37.5667 19.2915 37.1666 19.2915 36.6718L19.2915 20.5209L13.9685 20.5209L13.9685 38.3243C13.9685 39.1969 14.6754 39.909 15.5426 39.909L24.8492 39.909C25.0565 39.9085 25.2617 39.867 25.453 39.787C25.6443 39.7069 25.8179 39.59 25.9639 39.4428C26.1099 39.2956 26.2255 39.121 26.3039 38.9291C26.3824 38.7371 26.4222 38.5316 26.4211 38.3243L26.4211 20.5222L21.1019 20.5222L21.0968 36.6731C21.0968 37.1679 20.6825 37.568 20.1941 37.5796L20.1941 37.5783ZM38.0165 20.5222L29.9601 20.5222C29.7323 20.5227 29.5069 20.5681 29.2967 20.6557C29.0865 20.7434 28.8956 20.8716 28.735 21.0331C28.5743 21.1945 28.447 21.386 28.3604 21.5967C28.2738 21.8073 28.2296 22.033 28.2302 22.2608L28.2302 39.91L33.5587 39.91L33.5587 23.7205C33.561 23.4833 33.6563 23.2566 33.8242 23.0891C33.992 22.9216 34.2189 22.8267 34.456 22.8249C34.6931 22.8231 34.9215 22.9145 35.0918 23.0794C35.2622 23.2443 35.361 23.4695 35.3669 23.7066L35.3669 39.9103L40.6728 39.9103L40.6728 23.7063C40.679 23.2153 41.0781 22.8314 41.5755 22.8314C41.8128 22.8304 42.0409 22.9233 42.21 23.0899C42.3791 23.2565 42.4755 23.4831 42.4781 23.7205L42.4781 39.9103L47.805 39.9103L47.805 22.2608C47.8055 22.033 47.7611 21.8073 47.6744 21.5966C47.5877 21.386 47.4604 21.1944 47.2997 21.033C47.1389 20.8716 46.948 20.7434 46.7377 20.6557C46.5275 20.5681 46.302 20.5227 46.0742 20.5222L38.0165 20.5222ZM6.8476 23.7543C6.84913 23.6344 6.82698 23.5153 6.78241 23.404C6.73784 23.2926 6.67173 23.1912 6.58787 23.1054C6.50402 23.0197 6.40406 22.9514 6.29373 22.9043C6.18341 22.8573 6.06488 22.8325 5.94495 22.8314L5.04071 22.8314L5.04071 32.6379L5.94495 32.6379C6.06425 32.6383 6.18244 32.615 6.29264 32.5693C6.40284 32.5236 6.50284 32.4564 6.58684 32.3717C6.67084 32.287 6.73715 32.1864 6.78192 32.0758C6.82668 31.9652 6.84901 31.8468 6.8476 31.7276L6.8476 23.7543ZM10.4195 35.0374L5.04199 35.0374L5.04199 39.9097L-0.277155 39.9097L-0.277154 20.5222L10.4537 20.5222C11.4143 20.5222 12.1642 21.3027 12.1642 22.2685L12.1642 33.2917C12.1649 33.5211 12.1203 33.7484 12.0329 33.9605C11.9455 34.1726 11.817 34.3653 11.6549 34.5276C11.4927 34.6898 11.3001 34.8185 11.0881 34.9061C10.8761 34.9937 10.6489 35.0385 10.4195 35.038L10.4195 35.0374ZM66.0629 35.5744C64.9936 35.5744 64.0964 36.4987 64.0964 37.6186C64.0964 38.7385 64.9942 39.6589 66.0977 39.6589C67.1938 39.6589 68.0787 38.7424 68.0787 37.6186C68.0787 36.4948 67.1925 35.5744 66.0977 35.5744L66.0629 35.5744ZM68.4594 37.6125C68.4594 38.929 67.404 40 66.0971 40C65.7837 40.0005 65.4733 39.9391 65.1837 39.8192C64.8942 39.6994 64.6312 39.5234 64.4099 39.3015C64.1886 39.0796 64.0134 38.8162 63.8943 38.5263C63.7752 38.2364 63.7146 37.9258 63.716 37.6125C63.716 36.313 64.7763 35.2269 66.058 35.2269C67.404 35.2269 68.4594 36.2801 68.4594 37.6125Z" fill="black"/>
<path d="M65.8507 37.4609C66.2208 37.4609 66.4152 37.3293 66.4152 37.0669C66.4152 36.8332 66.2272 36.7123 65.8671 36.7123L65.7611 36.7123L65.7611 37.4599L65.8507 37.4609ZM67.2144 38.9934L66.5793 38.9934L65.7624 37.9064L65.7624 38.9934L65.2437 38.9934L65.2437 36.2439L65.7878 36.2439C66.5293 36.2439 66.9226 36.524 66.9226 37.0595C66.9226 37.4167 66.6905 37.7339 66.3659 37.8284L66.3281 37.8422L67.2144 38.9934ZM56.7372 32.6427L56.7372 23.714C56.7293 23.4783 56.6297 23.255 56.4596 23.0917C56.2895 22.9284 56.0623 22.838 55.8265 22.8398C55.5907 22.8416 55.3649 22.9355 55.1973 23.1014C55.0297 23.2673 54.9335 23.4921 54.9293 23.7279L54.9293 32.6414L56.7372 32.6427ZM56.7372 39.9115L56.7372 35.0437L54.9293 35.0437L54.9293 39.9115L49.6127 39.9115L49.6127 22.2608C49.612 22.033 49.6562 21.8074 49.7428 21.5967C49.8294 21.3861 49.9566 21.1946 50.1172 21.0331C50.2778 20.8716 50.4687 20.7434 50.6789 20.6558C50.8891 20.5681 51.1145 20.5227 51.3422 20.5222L60.3258 20.5222C60.5537 20.5226 60.7792 20.568 60.9894 20.6556C61.1997 20.7432 61.3907 20.8714 61.5514 21.0329C61.7121 21.1943 61.8394 21.3859 61.9261 21.5966C62.0127 21.8072 62.057 22.033 62.0564 22.2608L62.0564 39.9099L56.7372 39.9115Z" fill="black"/>
</g>
<defs>
<clipPath id="clip0_10477_13307">
<rect width="40" height="80" fill="white" transform="translate(80) rotate(90)"/>
</clipPath>
</defs>
</svg>
