<svg width="143" height="26" viewBox="0 0 143 26" fill="none" xmlns="http://www.w3.org/2000/svg">
<path d="M17.5771 23.9375C15.6942 22.7205 14.3076 18.52 14.3076 13.5298C14.3076 13.3467 14.3083 13.1659 14.3128 12.9858L14.3151 12.9881C9.07872 12.1389 5.29483 9.81151 5.19825 7.05987L5.18253 7.09156C3.90077 8.73512 3.1693 10.6352 3.1693 12.6597C3.1693 18.6173 9.50547 23.4986 17.5427 23.9305L17.5771 23.9375ZM0.748779 13.0948C0.748779 6.42857 8.78673 1.02344 18.7024 1.02344C28.6181 1.02344 36.656 6.42857 36.656 13.0948C36.656 19.761 28.6181 25.1661 18.7024 25.1661C8.78673 25.1661 0.748779 19.761 0.748779 13.0948ZM18.7024 2.76513C20.6168 2.76513 22.2445 5.76171 22.8479 9.94364L22.8501 9.93746C26.5741 9.33938 29.1818 7.95854 29.1818 6.35284C29.1818 4.19697 24.4898 2.45218 18.7024 2.45218C12.915 2.45218 8.22296 4.19774 8.22296 6.35284C8.22296 7.95854 10.8299 9.33861 14.5546 9.93746L14.5569 9.94364C15.1603 5.76249 16.7887 2.76513 18.7024 2.76513ZM19.8614 23.9305C27.8986 23.4986 34.2355 18.6173 34.2355 12.6597C34.2355 10.6352 33.5033 8.73512 32.2223 7.09156L32.2065 7.05987C32.11 9.81151 28.3268 12.1389 23.0897 12.9881L23.092 12.9858C23.0957 13.1659 23.0972 13.3467 23.0972 13.5298C23.0972 18.52 21.7091 22.7205 19.8277 23.9375L19.8614 23.9305ZM18.7024 10.2543C19.5604 10.2543 20.3937 10.2164 21.191 10.1438L21.1903 10.1445C20.7935 7.464 19.8292 5.5724 18.7024 5.5724C17.5756 5.5724 16.612 7.464 16.2145 10.1445L16.2137 10.1438C17.0111 10.2164 17.8444 10.2543 18.7024 10.2543ZM18.7024 20.1805C20.1436 20.1805 21.3191 17.0851 21.382 13.2029L21.3894 13.2053C20.521 13.2879 19.6225 13.332 18.7024 13.332C17.7823 13.332 16.8838 13.2887 16.0153 13.2053L16.0236 13.2029C16.0857 17.0858 17.2612 20.1805 18.7024 20.1805Z" fill="#FF0000"/>
<path d="M92.3601 13.0946C92.3601 7.99929 96.3626 3.86914 101.299 3.86914C106.237 3.86914 110.239 8.00006 110.239 13.0946C110.239 18.1906 106.236 22.32 101.299 22.32C96.3626 22.32 92.3601 18.1898 92.3601 13.0946ZM101.299 18.937C104.056 18.937 106.291 16.3206 106.291 13.0938C106.291 9.86771 104.056 7.25053 101.299 7.25053C98.5428 7.25053 96.3087 9.86694 96.3087 13.0938C96.3087 16.3206 98.5435 18.937 101.299 18.937Z" fill="#FF0000"/>
<path d="M120.382 7.71221V21.9008H116.616V7.71221H116.629H111.362V4.50391H125.636V7.71144H120.396H120.382V7.71221Z" fill="#FF0000"/>
<path d="M130.192 17.9862L130.189 17.9901L128.744 21.9008H124.345L131.299 4.50391H133.644H135.986L142.941 21.9008H138.542L137.097 17.9901L137.093 17.9862H133.644H130.192ZM133.644 15.0499H136.013L136.012 15.0507L133.659 8.68351H133.626L131.273 15.0507L131.272 15.0499H133.644Z" fill="#FF0000"/>
<path d="M50.9536 7.71221V21.9008H47.1869V7.71221H47.1997H41.9319V4.50391H56.2072V7.71144H50.9663H50.9536V7.71221Z" fill="#FF0000"/>
<path d="M57.1716 13.0946C57.1716 7.99929 61.1741 3.86914 66.1118 3.86914C71.0486 3.86914 75.0511 8.00006 75.0511 13.0946C75.0511 18.1906 71.0486 22.32 66.1118 22.32C61.1741 22.32 57.1716 18.1898 57.1716 13.0946ZM66.1118 18.937C68.8677 18.937 71.1033 16.3206 71.1033 13.0938C71.1033 9.86771 68.8684 7.25053 66.1118 7.25053C63.3551 7.25053 61.1202 9.86694 61.1202 13.0938C61.1202 16.3206 63.3551 18.937 66.1118 18.937Z" fill="#FF0000"/>
<path d="M83.7051 21.9008H85.615V15.3768V15.2948L92.1855 4.50391H87.7877L83.7051 11.8161L79.6232 4.50391H75.2239L81.7951 15.2948V15.376V21.9H83.7051V21.9008Z" fill="#FF0000"/>
</svg>
