<svg width="120" height="29" viewBox="0 0 120 29" fill="none" xmlns="http://www.w3.org/2000/svg">
<g clip-path="url(#clip0_12435_17258)">
<path d="M69.6 15.3258C69.6 12.4817 68.3837 9.96875 64.27 9.96875C62.1595 9.96875 60.4829 10.5709 59.5739 11.0979L60.2401 13.3797C61.077 12.8541 62.4124 12.4213 63.6728 12.4213C65.7554 12.4184 66.0967 13.5975 66.0967 14.3557V14.5382C61.5506 14.5309 58.6768 16.1031 58.6768 19.305C58.6768 21.2615 60.1357 23.0957 62.686 23.0957C64.2421 23.0957 65.5569 22.4671 66.3423 21.4749H66.4187C66.4187 21.4749 66.9365 23.6434 69.8 22.8145C69.6544 21.9062 69.6 20.9494 69.6 19.7864V15.3258ZM66.2085 18.329C66.2085 18.5586 66.1894 18.7971 66.1217 19.0017C65.8599 19.8777 64.9569 20.6108 63.8332 20.6108C62.8846 20.6108 62.1403 20.0734 62.1403 18.9473C62.1403 17.2249 64.0405 16.7508 66.2085 16.7626" fill="#0071CE"/>
<path d="M0 6.09961C0 6.09961 2.96941 18.2594 3.44154 20.2291C3.99747 22.5315 4.99317 23.3824 7.86703 22.8156L9.7231 15.2754C10.1923 13.4073 10.5114 12.0676 10.8144 10.1642H10.8658C11.0762 12.0868 11.3792 13.4073 11.763 15.2813C11.763 15.2813 12.5204 18.7069 12.9132 20.5015C13.2955 22.296 14.3721 23.428 17.1916 22.8156L21.6097 6.09961H18.0431L16.5268 13.3307C16.1253 15.4255 15.7605 17.0758 15.4766 18.9955H15.4252C15.1693 17.0964 14.8442 15.5139 14.4265 13.4617L12.8558 6.09961H9.13481L7.45814 13.2733C6.98012 15.4638 6.53304 17.2201 6.25211 19.0794H6.20359C5.91387 17.3349 5.52118 15.1135 5.10493 13.0054C5.10493 13.0054 4.10923 7.86911 3.75775 6.09961" fill="#0071CE"/>
<path d="M31.549 15.3258C31.549 12.4817 30.3297 9.96875 26.216 9.96875C24.1114 9.96875 22.4318 10.5709 21.5229 11.0979L22.1891 13.3797C23.023 12.8541 24.357 12.4213 25.6219 12.4213C27.7044 12.4184 28.0456 13.5975 28.0456 14.3557V14.5382C23.4996 14.5309 20.6228 16.1031 20.6228 19.305C20.6228 21.2615 22.0877 23.0957 24.6262 23.0957C26.1969 23.0957 27.5 22.4671 28.2854 21.4749H28.3647C28.3647 21.4749 28.8854 23.6434 31.746 22.8145C31.599 21.9062 31.549 20.9494 31.549 19.7864V15.3258ZM28.1545 18.329C28.1545 18.5586 28.1354 18.7971 28.0707 19.0017C27.8058 19.8777 26.9029 20.6108 25.7763 20.6108C24.8335 20.6108 24.0864 20.0734 24.0864 18.9473C24.0864 17.2249 25.9865 16.7508 28.1545 16.7626" fill="#0071CE"/>
<path d="M33.3999 6.09961V22.8097H36.7944V19.2663V6.09961H33.3999Z" fill="#0071CE"/>
<path d="M80.0181 6.09961V18.4287C80.0181 20.1305 80.3372 21.317 81.024 22.0442C81.627 22.6817 82.6139 23.0968 83.789 23.0968C84.798 23.0968 85.7848 22.9025 86.2511 22.7332L86.2099 20.0789C85.8613 20.1599 85.4627 20.2291 84.9156 20.2291C83.7567 20.2291 83.3743 19.4945 83.3743 17.9664V13.2468H86.3305V10.0537H83.3743V6.09961" fill="#0071CE"/>
<path d="M71.2446 10.2602V22.816H74.7538V16.3857C74.7538 16.0398 74.7758 15.7409 74.8303 15.4642C75.0921 14.1083 76.1201 13.2501 77.6011 13.2501C78.0144 13.2501 78.2953 13.2957 78.6072 13.3443V10.0526C78.3453 10.0055 78.1674 9.98047 77.8453 9.98047C76.5319 9.98047 75.0435 10.8152 74.4155 12.6332H74.3288V10.2602" fill="#0071CE"/>
<path d="M38.7654 10.2602V22.816H42.1848V15.4465C42.1848 15.1005 42.223 14.7472 42.3451 14.4278C42.6231 13.6814 43.3129 12.8173 44.4204 12.8173C45.7969 12.8173 46.447 13.9802 46.447 15.6585V22.816H49.8577V15.3582C49.8577 15.0328 49.9033 14.6339 49.9989 14.3453C50.2725 13.4989 51.0196 12.8173 52.0521 12.8173C53.4434 12.8173 54.117 13.9552 54.117 15.9338V22.816H57.5247V15.4126C57.5247 11.5233 55.548 9.98047 53.3036 9.98047C52.3168 9.98047 51.5315 10.2234 50.8254 10.6591C50.2283 11.0257 49.7048 11.5424 49.2356 12.2181H49.1841C48.6444 10.8667 47.3766 9.98047 45.7205 9.98047C43.5967 9.98047 42.6319 11.0537 42.0642 11.9605H42.0127V10.2602" fill="#0071CE"/>
<path d="M104.696 9.69544C105.366 9.69544 105.931 9.34508 106.005 8.8946L106.669 1.3573C106.669 0.610935 105.791 0 104.696 0C103.594 0 102.722 0.610935 102.722 1.3573L103.393 8.8946C103.463 9.34508 104.025 9.69544 104.696 9.69544Z" fill="#FCB61A"/>
<path d="M100.617 12.0543C100.949 11.4654 100.93 10.8118 100.571 10.5203L94.3646 6.17608C93.719 5.79922 92.7526 6.24822 92.1997 7.19921C91.6482 8.14873 91.7599 9.21456 92.3923 9.58406L99.2636 12.7727C99.7034 12.9376 100.278 12.6314 100.617 12.0484" fill="#FCB61A"/>
<path d="M108.773 12.0481C109.125 12.6311 109.7 12.9373 110.128 12.7813L116.999 9.5838C117.638 9.20694 117.733 8.15142 117.193 7.20189C116.642 6.2509 115.67 5.80484 115.026 6.17435L108.818 10.5142C108.473 10.8101 108.448 11.4667 108.781 12.054" fill="#FCB61A"/>
<path d="M104.696 19.1094C105.366 19.1094 105.931 19.4597 106.005 19.9102L106.669 27.4475C106.669 28.1939 105.791 28.7989 104.696 28.7989C103.594 28.7989 102.722 28.1939 102.722 27.4475L103.393 19.9102C103.463 19.4597 104.025 19.1094 104.696 19.1094Z" fill="#FCB61A"/>
<path d="M108.773 16.7575C109.125 16.173 109.7 15.8609 110.128 16.0302L116.999 19.2218C117.638 19.5913 117.733 20.6557 117.193 21.6067C116.642 22.5503 115.67 22.9993 115.026 22.6298L108.818 18.2841C108.473 17.9911 108.448 17.3375 108.781 16.7575" fill="#FCB61A"/>
<path d="M100.617 16.7512C100.949 17.3386 100.93 17.9907 100.571 18.2852L94.3646 22.6235C93.719 23.0004 92.7526 22.5499 92.1997 21.6063C91.6482 20.6568 91.7599 19.5909 92.3923 19.2214L99.2636 16.0299C99.7034 15.862 100.278 16.1712 100.617 16.7512Z" fill="#FCB61A"/>
<path d="M119.01 21.9685H119.096C119.212 21.9685 119.259 22.0053 119.272 22.0981C119.297 22.2011 119.31 22.2703 119.335 22.2998H119.556C119.537 22.2777 119.512 22.2218 119.499 22.0922C119.473 21.9803 119.416 21.917 119.335 21.8949V21.8743C119.447 21.8493 119.512 21.7742 119.512 21.6815C119.512 21.5976 119.473 21.5372 119.435 21.4989C119.362 21.4636 119.291 21.4356 119.135 21.4356C118.997 21.4356 118.895 21.4474 118.815 21.4665V22.2998H119.01V21.9685ZM119.016 21.5887L119.116 21.5755C119.234 21.5755 119.297 21.63 119.297 21.7065C119.297 21.7919 119.212 21.8316 119.103 21.8316H119.016V21.5887ZM119.141 21.0234C118.659 21.0234 118.276 21.4003 118.276 21.8626C118.276 22.3366 118.659 22.7134 119.141 22.7134C119.629 22.7134 120 22.3366 120 21.8626C120 21.4003 119.629 21.0234 119.141 21.0234ZM119.141 21.1927C119.512 21.1927 119.787 21.493 119.787 21.8626C119.787 22.235 119.512 22.5441 119.141 22.5383C118.771 22.5383 118.49 22.235 118.49 21.8626C118.49 21.493 118.771 21.1927 119.135 21.1927" fill="#FCB61A"/>
</g>
<defs>
<clipPath id="clip0_12435_17258">
<rect width="120" height="28.8" fill="white"/>
</clipPath>
</defs>
</svg>
