<svg width="152" height="42" viewBox="0 0 152 42" fill="none" xmlns="http://www.w3.org/2000/svg">
<path d="M92.3886 3.21667C91.7716 3.22122 91.1637 3.36539 90.6103 3.63834C90.057 3.91129 89.5726 4.30596 89.1936 4.79276V3.81989C89.1936 3.72103 89.1543 3.62622 89.0844 3.55632C89.0145 3.48641 88.9197 3.44714 88.8208 3.44714H88.4338C88.3349 3.44714 88.2401 3.48641 88.1702 3.55632C88.1003 3.62622 88.061 3.72103 88.061 3.81989V16.1317C88.061 16.2305 88.1003 16.3253 88.1702 16.3952C88.2401 16.4651 88.3349 16.5044 88.4338 16.5044H88.8208C88.9197 16.5044 89.0145 16.4651 89.0844 16.3952C89.1543 16.3253 89.1936 16.2305 89.1936 16.1317V11.5506C89.99 12.5819 91.1443 13.1696 92.3886 13.1696C93.6329 13.1696 94.704 12.6974 95.4681 11.8028C96.2322 10.9083 96.6391 9.6552 96.6391 8.18038C96.6391 6.70555 96.2341 5.44693 95.4681 4.5598C94.7021 3.67266 93.6423 3.21667 92.3886 3.21667ZM94.589 11.0052C94.015 11.7457 93.1944 12.1371 92.214 12.1371C90.9026 12.1371 89.7055 11.3034 89.1936 10.4753V5.87808C89.6943 5.07047 90.8877 4.25476 92.214 4.25476C94.1672 4.25476 95.429 5.79856 95.429 8.18723C95.429 9.31976 95.1382 10.2945 94.589 11.0052ZM95.5147 26.6778V32.9213C95.5147 33.0202 95.4754 33.115 95.4055 33.1849C95.3356 33.2548 95.2408 33.2941 95.1419 33.2941H94.7549C94.6561 33.2941 94.5612 33.2548 94.4913 33.1849C94.4214 33.115 94.3822 33.0202 94.3822 32.9213V26.8916C94.3822 25.3118 93.6988 24.6073 92.1755 24.6073C90.9511 24.6073 89.7527 25.3931 89.1936 26.1747V32.9213C89.1936 33.0202 89.1543 33.115 89.0844 33.1849C89.0145 33.2548 88.9197 33.2941 88.8208 33.2941H88.4338C88.3349 33.2941 88.2401 33.2548 88.1702 33.1849C88.1003 33.115 88.061 33.0202 88.061 32.9213V24.1755C88.061 24.0766 88.1003 23.9818 88.1702 23.9119C88.2401 23.842 88.3349 23.8027 88.4338 23.8027H88.8208C88.9197 23.8027 89.0145 23.842 89.0844 23.9119C89.1543 23.9818 89.1936 24.0766 89.1936 24.1755V25.1148C89.8949 24.3482 91.1815 23.5698 92.5048 23.5698C94.5021 23.571 95.5147 24.6159 95.5147 26.6772V26.6778ZM132.137 23.5716C130.804 23.5716 129.659 24.0724 128.826 25.0204C128.032 25.9224 127.596 27.1717 127.596 28.5397C127.596 29.9077 128.03 31.1613 128.826 32.0683C129.66 33.0226 130.805 33.527 132.137 33.527C133.486 33.527 134.643 33.0226 135.482 32.0683C136.279 31.1638 136.717 29.9108 136.717 28.5397C136.717 27.1686 136.279 25.9199 135.482 25.0204C134.644 24.0717 133.487 23.571 132.134 23.571L132.137 23.5716ZM134.633 31.293C134.019 32.077 133.155 32.4914 132.137 32.4914C129.937 32.4914 128.787 30.5034 128.787 28.5397C128.787 26.5853 129.937 24.6073 132.137 24.6073C133.154 24.6073 134.018 25.021 134.633 25.8025C135.196 26.5188 135.507 27.4911 135.507 28.5397C135.507 29.5884 135.196 30.5743 134.633 31.2924V31.293ZM142.827 23.6213C142.861 23.6184 142.896 23.6227 142.928 23.6338C142.961 23.645 142.991 23.6628 143.016 23.6862C143.041 23.7096 143.062 23.738 143.075 23.7696C143.089 23.8012 143.096 23.8354 143.096 23.8698V24.57C143.096 24.6048 143.089 24.6393 143.075 24.6712C143.061 24.7031 143.041 24.7316 143.015 24.7551C142.989 24.7785 142.959 24.7963 142.926 24.8072C142.893 24.8181 142.857 24.822 142.823 24.8185C142.727 24.8098 142.627 24.8054 142.53 24.8054C141.654 24.8054 140.375 25.6062 139.935 26.4262V32.9257C139.935 33.0245 139.896 33.1193 139.826 33.1892C139.756 33.2592 139.661 33.2984 139.563 33.2984H139.176C139.077 33.2984 138.982 33.2592 138.912 33.1892C138.842 33.1193 138.803 33.0245 138.803 32.9257V24.1755C138.803 24.0766 138.842 23.9818 138.912 23.9119C138.982 23.842 139.077 23.8027 139.176 23.8027H139.563C139.661 23.8027 139.756 23.842 139.826 23.9119C139.896 23.9818 139.935 24.0766 139.935 24.1755V25.2937C140.752 24.2786 141.776 23.7046 142.827 23.6207V23.6213ZM145.347 3.26017C145.381 3.25723 145.416 3.26149 145.449 3.27266C145.481 3.28383 145.511 3.30165 145.536 3.32502C145.562 3.34839 145.582 3.37679 145.596 3.40841C145.61 3.44002 145.617 3.47417 145.617 3.50866V4.20941C145.617 4.24424 145.61 4.27874 145.596 4.31063C145.582 4.34252 145.561 4.37111 145.535 4.39454C145.509 4.41797 145.479 4.43573 145.446 4.44665C145.413 4.45757 145.378 4.46139 145.343 4.45791C145.247 4.44859 145.148 4.44486 145.05 4.44486C144.174 4.44486 142.895 5.24566 142.456 6.0657V12.5583C142.456 12.6571 142.416 12.7519 142.347 12.8218C142.277 12.8918 142.182 12.931 142.083 12.931H141.696C141.597 12.931 141.502 12.8918 141.432 12.8218C141.362 12.7519 141.323 12.6571 141.323 12.5583V3.81555C141.323 3.71669 141.362 3.62188 141.432 3.55198C141.502 3.48208 141.597 3.44281 141.696 3.44281H142.083C142.182 3.44281 142.277 3.48208 142.347 3.55198C142.416 3.62188 142.456 3.71669 142.456 3.81555V4.93379C143.273 3.91744 144.296 3.34402 145.347 3.25953V3.26017ZM111.823 3.26017C111.857 3.25723 111.892 3.26149 111.924 3.27266C111.957 3.28383 111.987 3.30165 112.012 3.32502C112.038 3.34839 112.058 3.37679 112.072 3.40841C112.086 3.44002 112.093 3.47417 112.093 3.50866V4.20941C112.093 4.24424 112.086 4.27874 112.072 4.31063C112.058 4.34252 112.037 4.37111 112.011 4.39454C111.985 4.41797 111.955 4.43573 111.922 4.44665C111.889 4.45757 111.854 4.46139 111.819 4.45791C111.723 4.44859 111.623 4.44486 111.526 4.44486C110.65 4.44486 109.371 5.24566 108.932 6.0657V12.5583C108.932 12.6571 108.892 12.7519 108.822 12.8218C108.753 12.8918 108.658 12.931 108.559 12.931H108.172C108.073 12.931 107.978 12.8918 107.908 12.8218C107.838 12.7519 107.799 12.6571 107.799 12.5583V3.81555C107.799 3.71669 107.838 3.62188 107.908 3.55198C107.978 3.48208 108.073 3.44281 108.172 3.44281H108.559C108.658 3.44281 108.753 3.48208 108.822 3.55198C108.892 3.62188 108.932 3.71669 108.932 3.81555V4.93379C109.749 3.91744 110.772 3.34402 111.823 3.25953V3.26017ZM151.259 24.4644L146.864 28.1017L150.734 32.6809C150.78 32.7352 150.81 32.8014 150.819 32.8718C150.828 32.9422 150.818 33.0138 150.788 33.0782C150.758 33.1426 150.71 33.1972 150.65 33.2354C150.59 33.2737 150.521 33.294 150.45 33.2941H150.081C149.972 33.2941 149.864 33.2703 149.765 33.2242C149.667 33.1782 149.579 33.1111 149.509 33.0276L146.082 28.9429V32.9188C146.082 33.0177 146.043 33.1125 145.973 33.1824C145.903 33.2523 145.808 33.2916 145.709 33.2916H145.322C145.223 33.2916 145.128 33.2523 145.059 33.1824C144.989 33.1125 144.949 33.0177 144.949 32.9188V19.9225C144.949 19.8236 144.989 19.7288 145.059 19.6589C145.128 19.589 145.223 19.5497 145.322 19.5497H145.709C145.808 19.5497 145.903 19.589 145.973 19.6589C146.043 19.7288 146.082 19.8236 146.082 19.9225V27.391L150.299 23.9705C150.433 23.8618 150.6 23.8025 150.772 23.8027H151.02C151.097 23.8021 151.173 23.8255 151.236 23.8695C151.299 23.9135 151.347 23.9762 151.373 24.0487C151.4 24.1212 151.403 24.2 151.382 24.2743C151.362 24.3487 151.319 24.4149 151.259 24.4638V24.4644ZM101.114 6.82111C99.4546 6.82111 97.7748 7.90828 97.7748 9.98571C97.7748 12.0538 99.495 13.1696 101.114 13.1696C102.392 13.1696 103.413 12.762 104.231 11.9271V12.5657C104.231 12.6646 104.271 12.7594 104.341 12.8293C104.41 12.8992 104.505 12.9385 104.604 12.9385H104.991C105.09 12.9385 105.185 12.8992 105.255 12.8293C105.325 12.7594 105.364 12.6646 105.364 12.5657V6.28374C105.364 4.36286 104.065 3.21606 101.889 3.21606C100.382 3.21606 99.2558 3.70683 98.237 4.80705L98.2009 4.84618L98.8433 5.64324L98.8918 5.58794C99.7168 4.65049 100.611 4.2324 101.792 4.2324C103.007 4.2324 104.231 4.87849 104.231 6.32287V8.06235C103.438 7.24107 102.39 6.8236 101.114 6.8236V6.82111ZM104.231 11.0114C103.614 11.7991 102.606 12.2501 101.463 12.2501C99.9926 12.2501 98.9657 11.327 98.9657 10.005C98.9657 8.67179 99.9926 7.73993 101.463 7.73993C102.628 7.73993 103.61 8.1866 104.231 8.99794V11.0114ZM127.925 6.53409C127.925 4.95427 127.242 4.24978 125.719 4.24978C124.494 4.24978 123.296 5.03568 122.737 5.8172V12.5639C122.737 12.6627 122.698 12.7575 122.628 12.8274C122.558 12.8973 122.463 12.9366 122.364 12.9366H121.977C121.878 12.9366 121.783 12.8973 121.714 12.8274C121.644 12.7575 121.604 12.6627 121.604 12.5639V3.82238C121.604 3.72352 121.644 3.62871 121.714 3.5588C121.783 3.4889 121.878 3.44963 121.977 3.44963H122.364C122.463 3.44963 122.558 3.4889 122.628 3.5588C122.698 3.62871 122.737 3.72352 122.737 3.82238V4.7617C123.438 3.99509 124.725 3.21667 126.049 3.21667C128.045 3.21667 129.058 4.26222 129.058 6.32287V12.5657C129.058 12.6646 129.019 12.7594 128.949 12.8293C128.879 12.8992 128.784 12.9385 128.685 12.9385H128.298C128.199 12.9385 128.105 12.8992 128.035 12.8293C127.965 12.7594 127.925 12.6646 127.925 12.5657V6.53409ZM102.432 23.5685C101.815 23.5653 101.204 23.6934 100.641 23.9444C100.077 24.1953 99.5731 24.5634 99.1626 25.0241C98.3302 25.9473 97.8717 27.1947 97.8717 28.5366C97.8717 29.9487 98.3438 31.2235 99.1999 32.1249C100.056 33.0263 101.267 33.5239 102.607 33.5239C104.011 33.5239 105.161 33.089 106.112 32.1951C106.168 32.1408 106.202 32.0672 106.207 31.9889C106.211 31.9107 106.186 31.8337 106.136 31.7733L105.919 31.5092C105.892 31.4766 105.858 31.4499 105.821 31.4306C105.783 31.4113 105.742 31.3999 105.7 31.397C105.658 31.3942 105.616 31.3999 105.576 31.414C105.536 31.4281 105.499 31.4501 105.468 31.4788C104.723 32.1572 103.747 32.5268 102.684 32.5268C101.652 32.5268 100.759 32.1541 100.105 31.449C99.5062 30.8035 99.1458 29.9108 99.0856 28.928H106.603C106.685 28.928 106.764 28.8953 106.822 28.837C106.881 28.7788 106.913 28.6997 106.913 28.6174V28.5944C106.913 27.2096 106.503 25.9522 105.757 25.0533C104.952 24.0848 103.801 23.571 102.432 23.571V23.5685ZM99.0843 28.0117C99.1361 27.1752 99.4429 26.3748 99.9634 25.718C100.392 25.1937 101.165 24.5681 102.412 24.5681C104.803 24.5681 105.718 26.6033 105.761 28.0117H99.0843ZM135.335 3.21667C134.718 3.21361 134.107 3.34183 133.543 3.59278C132.98 3.84373 132.476 4.21168 132.065 4.67225C131.232 5.59541 130.774 6.84286 130.774 8.18475C130.774 9.59745 131.246 10.8716 132.103 11.7737C132.959 12.6757 134.169 13.1721 135.51 13.1721C136.914 13.1721 138.064 12.7372 139.014 11.8432C139.071 11.789 139.104 11.7153 139.109 11.6371C139.113 11.5588 139.088 11.4818 139.038 11.4214L138.821 11.158C138.794 11.1255 138.761 11.0988 138.723 11.0796C138.686 11.0603 138.645 11.0489 138.602 11.0461C138.56 11.0432 138.518 11.049 138.478 11.063C138.439 11.077 138.402 11.099 138.371 11.1276C137.626 11.8053 136.649 12.175 135.587 12.175C134.554 12.175 133.661 11.8022 133.007 11.0971C132.409 10.4523 132.048 9.55893 131.988 8.57675H139.505C139.587 8.57675 139.666 8.544 139.724 8.48575C139.783 8.4275 139.815 8.34851 139.815 8.26613V8.24314C139.815 6.85777 139.405 5.60038 138.659 4.70206C137.855 3.73106 136.705 3.21667 135.336 3.21667H135.335ZM131.988 7.6573C132.04 6.82089 132.346 6.02042 132.867 5.36368C133.295 4.83935 134.068 4.21378 135.315 4.21378C137.706 4.21378 138.621 6.24894 138.665 7.6573H131.988ZM112.601 24.1755V24.4457C112.601 24.5446 112.562 24.6394 112.492 24.7093C112.422 24.7792 112.327 24.8185 112.229 24.8185H110.018V31.2719C110.018 32.0454 110.349 32.4896 110.925 32.4896C111.209 32.4961 111.487 32.413 111.72 32.2522C111.757 32.2269 111.799 32.2099 111.843 32.2023C111.887 32.1947 111.933 32.1967 111.976 32.2082C112.019 32.2197 112.059 32.2405 112.094 32.269C112.128 32.2975 112.156 32.3331 112.176 32.3734L112.328 32.6772C112.36 32.7416 112.369 32.8152 112.353 32.8855C112.337 32.9557 112.297 33.0183 112.24 33.0623C111.84 33.3729 111.371 33.5252 110.771 33.5252C109.542 33.5252 108.866 32.7797 108.866 31.4266V24.8197H107.313C107.214 24.8197 107.12 24.7805 107.05 24.7105C106.98 24.6406 106.941 24.5458 106.941 24.447V24.1755C106.941 24.0766 106.98 23.9818 107.05 23.9119C107.12 23.842 107.214 23.8027 107.313 23.8027H108.866V21.616C108.866 21.5171 108.906 21.4223 108.976 21.3524C109.045 21.2825 109.14 21.2432 109.239 21.2432H109.645C109.744 21.2432 109.839 21.2825 109.909 21.3524C109.979 21.4223 110.018 21.5171 110.018 21.616V23.8027H112.229C112.327 23.8027 112.422 23.842 112.492 23.9119C112.562 23.9818 112.601 24.0766 112.601 24.1755ZM118.846 3.82238V4.09326C118.846 4.19212 118.807 4.2869 118.737 4.3568C118.667 4.42671 118.572 4.466 118.473 4.466H116.262V10.9188C116.262 11.6923 116.593 12.1365 117.17 12.1365C117.453 12.143 117.731 12.0599 117.964 11.8991C118.001 11.8738 118.043 11.8568 118.087 11.8492C118.132 11.8416 118.177 11.8437 118.22 11.8552C118.263 11.8667 118.303 11.8874 118.338 11.9159C118.372 11.9444 118.4 11.98 118.42 12.0203L118.572 12.3247C118.604 12.389 118.613 12.4625 118.597 12.5326C118.581 12.6028 118.541 12.6652 118.484 12.7092C118.084 13.0199 117.615 13.1721 117.015 13.1721C115.786 13.1721 115.111 12.4266 115.111 11.0735V4.466H113.559C113.46 4.466 113.366 4.42671 113.296 4.3568C113.226 4.2869 113.187 4.19212 113.187 4.09326V3.82238C113.187 3.72352 113.226 3.62871 113.296 3.5588C113.366 3.4889 113.46 3.44963 113.559 3.44963H115.112V1.26288C115.112 1.16402 115.152 1.06921 115.222 0.999309C115.291 0.929406 115.386 0.890137 115.485 0.890137H115.891C115.99 0.890137 116.085 0.929406 116.155 0.999309C116.225 1.06921 116.264 1.16402 116.264 1.26288V3.44963H118.473C118.572 3.44963 118.667 3.4889 118.737 3.5588C118.807 3.62871 118.846 3.72352 118.846 3.82238ZM126.616 24.2917L123.773 33.0356C123.749 33.1105 123.702 33.1757 123.638 33.222C123.574 33.2683 123.498 33.2933 123.419 33.2934H122.9C122.822 33.2934 122.745 33.2685 122.681 33.2223C122.618 33.1761 122.571 33.111 122.546 33.0362L120.057 25.4223L117.549 33.0375C117.525 33.112 117.477 33.1768 117.414 33.2228C117.35 33.2688 117.274 33.2935 117.195 33.2934H116.677C116.598 33.2935 116.521 33.2685 116.457 33.2222C116.394 33.1759 116.346 33.1106 116.322 33.0356L113.48 24.2917C113.462 24.2358 113.457 24.1764 113.466 24.1183C113.475 24.0603 113.498 24.0053 113.533 23.9577C113.567 23.9102 113.613 23.8715 113.665 23.8448C113.717 23.818 113.775 23.8041 113.834 23.804H114.264C114.343 23.8039 114.421 23.8293 114.485 23.8763C114.549 23.9234 114.596 23.9897 114.62 24.0655L116.976 31.613L119.482 24.0593C119.506 23.985 119.553 23.9202 119.616 23.8742C119.679 23.8281 119.756 23.8031 119.834 23.8027H120.258C120.336 23.8028 120.413 23.8275 120.476 23.8733C120.54 23.9192 120.587 23.9838 120.612 24.0581L123.117 31.6118L125.473 24.0643C125.497 23.9884 125.544 23.9221 125.609 23.8751C125.673 23.828 125.75 23.8027 125.829 23.8027H126.259C126.318 23.8024 126.377 23.816 126.43 23.8427C126.482 23.8693 126.528 23.9081 126.563 23.9558C126.598 24.0036 126.621 24.0589 126.63 24.1173C126.639 24.1757 126.634 24.2355 126.616 24.2917Z" fill="#252F3E"/>
<path d="M20.4301 15.329C20.4301 16.182 20.5221 16.8735 20.6836 17.3791C20.8884 17.9496 21.1349 18.5042 21.421 19.0385C21.5237 19.1966 21.5797 19.3805 21.5825 19.569C21.5825 19.7995 21.444 20.03 21.1477 20.2605L19.6909 21.2308C19.5155 21.3569 19.3071 21.429 19.0914 21.4383C18.8609 21.4383 18.6304 21.3228 18.3999 21.1153C18.0894 20.7814 17.8114 20.4186 17.5699 20.0318C17.3395 19.6398 17.109 19.2019 16.8555 18.672C15.0576 20.7929 12.7986 21.8531 10.0784 21.8527C8.14197 21.8527 6.59942 21.2998 5.46752 20.1934C4.33562 19.0869 3.76221 17.6115 3.76221 15.767C3.76221 13.8076 4.45365 12.2172 5.85952 11.0182C7.26539 9.81924 9.13285 9.22037 11.5072 9.22037C12.3252 9.22753 13.1417 9.28979 13.9512 9.40674C14.8042 9.52167 15.6801 9.70619 16.602 9.91368V8.23072C16.602 6.47881 16.233 5.25747 15.5186 4.54242C14.7806 3.828 13.5362 3.48258 11.7607 3.48258C10.9219 3.48249 10.0862 3.58301 9.27139 3.78201C8.42384 3.98386 7.59174 4.24587 6.78144 4.56602C6.51898 4.68315 6.24921 4.78316 5.97383 4.86545C5.85441 4.90465 5.73033 4.92783 5.60481 4.9344C5.28239 4.9344 5.12086 4.70392 5.12086 4.21997V3.09057C5.12086 2.72156 5.16683 2.4451 5.28238 2.28296C5.39794 2.12081 5.60481 1.96053 5.92786 1.79901C6.73423 1.38485 7.70233 1.03901 8.83216 0.761522C10.0069 0.460237 11.2158 0.313023 12.4285 0.323558C15.1713 0.323558 17.1773 0.944804 18.4676 2.19102C19.7356 3.4335 20.3811 5.32579 20.3811 7.8617V15.329H20.4301ZM11.0705 18.8328C11.8315 18.8328 12.6149 18.6949 13.4449 18.4185C14.2749 18.142 15.0123 17.6345 15.6348 16.943C16.0062 16.5181 16.2745 16.0132 16.4188 15.4676C16.5772 14.811 16.6546 14.1376 16.6493 13.4622V12.4962C15.9502 12.326 15.2421 12.1952 14.5283 12.1042C13.8096 12.0132 13.0859 11.9671 12.3614 11.9663C10.817 11.9663 9.6901 12.2657 8.92659 12.8882C8.16309 13.5107 7.79718 14.3866 7.79718 15.539C7.79718 16.6225 8.07363 17.4294 8.65014 17.983C9.20367 18.5564 10.01 18.8328 11.0705 18.8328ZM29.5835 21.3228C29.1685 21.3228 28.8921 21.2538 28.7076 21.0923C28.5212 20.9538 28.3615 20.6313 28.2236 20.1934L22.8058 2.37366C22.6679 1.9127 22.5989 1.61327 22.5989 1.45174C22.5989 1.08273 22.7853 0.875851 23.1518 0.875851H25.4113C25.8461 0.875851 26.1487 0.944807 26.3102 1.10633C26.4966 1.24425 26.6326 1.56727 26.7712 2.00525L30.644 17.2655L34.2397 2.00525C34.3553 1.54429 34.4932 1.24425 34.6746 1.10633C34.856 0.968414 35.1822 0.875851 35.5971 0.875851H37.441C37.8759 0.875851 38.179 0.944807 38.3629 1.10633C38.5493 1.24425 38.7089 1.56727 38.8009 2.00525L42.4432 17.45L46.4316 2.00525C46.5695 1.54429 46.731 1.24425 46.8926 1.10633C47.0789 0.967793 47.3765 0.875851 47.7915 0.875851H49.9354C50.3044 0.875851 50.5113 1.06223 50.5113 1.45174C50.5059 1.57579 50.4906 1.69919 50.4653 1.82076C50.4293 2.01742 50.3755 2.21037 50.3044 2.39726L44.7487 20.2164C44.6103 20.6773 44.449 20.977 44.2647 21.1153C44.0783 21.2538 43.7801 21.3458 43.3888 21.3458H41.4058C40.9709 21.3458 40.6683 21.2768 40.4838 21.1153C40.2993 20.9538 40.1384 20.6543 40.049 20.1934L36.4762 5.32456L32.9258 20.1722C32.8109 20.6332 32.6723 20.9326 32.4909 21.0942C32.3095 21.2557 31.984 21.3246 31.569 21.3246L29.5835 21.3228ZM59.2056 21.944C58.01 21.9452 56.8183 21.8059 55.6552 21.529C54.5028 21.2526 53.6051 20.9525 53.0043 20.6071C52.6353 20.3996 52.3831 20.1691 52.2899 19.9616C52.2 19.7583 52.1528 19.5385 52.1514 19.3162V18.1402C52.1514 17.6562 52.3378 17.4257 52.6819 17.4257C52.8229 17.4262 52.9628 17.4495 53.0963 17.4947C53.2348 17.5413 53.4423 17.6332 53.6728 17.7252C54.4871 18.0836 55.3372 18.3543 56.2087 18.5328C57.1115 18.716 58.0303 18.8087 58.9515 18.8092C60.404 18.8092 61.5334 18.5558 62.3174 18.0488C63.1014 17.5419 63.5164 16.8063 63.5164 15.859C63.5164 15.2135 63.3089 14.6829 62.8951 14.2437C62.4814 13.8045 61.6961 13.4137 60.5667 13.0453L57.2238 12.0079C55.5415 11.478 54.2965 10.694 53.5355 9.65648C52.7751 8.64199 52.3831 7.51258 52.3831 6.31421C52.3831 5.34548 52.5902 4.49249 53.0043 3.75528C53.4158 3.01343 53.9819 2.36873 54.6643 1.86486C55.3828 1.32111 56.1955 0.914822 57.0617 0.666485C57.9836 0.389411 58.9515 0.274478 59.966 0.274478C60.4823 0.270716 60.9982 0.301432 61.5104 0.36642C62.0409 0.435378 62.5249 0.527948 63.0088 0.619892C63.4698 0.735443 63.9078 0.850369 64.3228 0.988906C64.6592 1.09296 64.9839 1.23207 65.2913 1.40391C65.6137 1.59028 65.8442 1.77291 65.9827 1.98041C66.1213 2.16678 66.1902 2.4184 66.1902 2.74082V3.82426C66.1902 4.30821 66.0038 4.56229 65.6597 4.56229C65.4733 4.56229 65.1757 4.46973 64.7837 4.28522C63.4696 3.68634 61.9943 3.38668 60.358 3.38627C59.0441 3.38627 58.0066 3.59377 57.2922 4.03175C56.5777 4.46973 56.2087 5.13818 56.2087 6.08185C56.2023 6.38791 56.2606 6.69187 56.3797 6.97385C56.4989 7.25584 56.6762 7.50948 56.9002 7.71819C57.3611 8.15617 58.2141 8.59415 59.4361 8.98616L62.7094 10.0236C64.3694 10.5536 65.5671 11.2916 66.2822 12.2365C66.9972 13.1814 67.3426 14.2649 67.3426 15.4639C67.3426 16.4578 67.1351 17.3543 66.7431 18.1352C66.3344 18.9244 65.7606 19.6164 65.0608 20.1642C64.3457 20.7401 63.4928 21.155 62.5019 21.4551C61.4333 21.7857 60.3204 21.9511 59.2019 21.9453L59.2056 21.944Z" fill="#252F3E"/>
<path fill-rule="evenodd" clip-rule="evenodd" d="M63.56 33.1486C55.9758 38.7497 44.9569 41.7217 35.4799 41.7217C22.2021 41.7217 10.2376 36.8139 1.20163 28.6514C0.486579 28.006 1.13205 27.13 1.98501 27.637C11.759 33.3077 23.8154 36.7425 36.2868 36.7425C44.7009 36.7425 53.9444 34.9906 62.451 31.3948C63.7215 30.8227 64.8049 32.2261 63.56 33.1486Z" fill="#FF9900"/>
<path fill-rule="evenodd" clip-rule="evenodd" d="M66.7181 29.5526C65.7502 28.3101 60.31 28.9531 57.843 29.2531C57.1056 29.3451 56.9901 28.6996 57.6567 28.2156C61.9904 25.1716 69.113 26.0488 69.9429 27.0633C70.7729 28.1001 69.7125 35.2233 65.6564 38.6351C65.0351 39.165 64.435 38.8886 64.7115 38.1971C65.634 35.9172 67.686 30.7745 66.7181 29.5526Z" fill="#FF9900"/>
</svg>
