<svg width="214" height="214" viewBox="0 0 214 214" fill="none" xmlns="http://www.w3.org/2000/svg">
<path d="M15 0.5H199C207.008 0.5 213.5 6.99187 213.5 15V199C213.5 207.008 207.008 213.5 199 213.5H15C6.99187 213.5 0.5 207.008 0.5 199V15L0.504883 14.626C0.700124 6.915 6.915 0.700125 14.626 0.504883L15 0.5Z" fill="white"/>
<path d="M15 0.5H199C207.008 0.5 213.5 6.99187 213.5 15V199C213.5 207.008 207.008 213.5 199 213.5H15C6.99187 213.5 0.5 207.008 0.5 199V15L0.504883 14.626C0.700124 6.915 6.915 0.700125 14.626 0.504883L15 0.5Z" stroke="#5F6368"/>
<path d="M137.87 126.536C138.706 126.066 139.481 125.338 140.49 125.329C141.021 125.294 141.552 125.326 142.083 125.355C142.123 126.063 142.127 126.777 142.106 127.491C141.088 127.65 139.892 127.406 139.063 128.158C138.514 128.691 137.989 129.37 137.975 130.174C137.888 132.527 138.024 134.883 137.926 137.236C137.192 137.297 136.451 137.303 135.72 137.262C135.66 133.392 135.671 129.516 135.715 125.646C136.35 125.599 136.994 125.587 137.63 125.695C137.69 125.907 137.809 126.327 137.87 126.536ZM181.232 125.146C182.056 124.868 182.947 125.01 183.785 125.161C183.858 125.941 183.87 126.728 183.855 127.514C183.002 127.47 182.132 127.241 181.29 127.459C180.066 127.876 179.289 129.167 179.303 130.435C179.253 132.603 179.329 134.773 179.291 136.943C178.528 137.048 177.757 137.053 176.994 136.972C176.947 133.113 176.947 129.252 176.994 125.396C177.591 125.347 178.194 125.329 178.798 125.347C178.99 125.64 179.193 125.927 179.404 126.211C180.014 125.854 180.588 125.436 181.232 125.146ZM166.302 129.777C168.438 129.861 170.576 129.861 172.711 129.78C172.593 128.233 171.037 126.983 169.493 127.168C167.927 127.076 166.778 128.425 166.302 129.777ZM166.253 126.066C168.452 124.363 171.919 124.668 173.77 126.757C174.887 128.126 175.43 129.948 175.169 131.709C172.221 131.802 169.27 131.695 166.323 131.752C166.059 133.902 168.287 135.666 170.335 135.298C171.551 135.272 172.273 134.21 173.088 133.473C173.79 133.389 174.377 133.92 174.986 134.19C173.802 137.137 169.917 138.33 167.17 136.888C163.097 135.043 162.78 128.657 166.253 126.066ZM154.445 126.289C155.504 125.654 156.577 124.845 157.892 124.987C160.131 124.775 162.159 126.771 162.174 128.976C162.203 131.637 162.186 134.3 162.186 136.963C161.44 137.041 160.688 137.05 159.943 136.981C159.847 134.338 160.082 131.68 159.821 129.046C159.691 127.351 157.601 126.826 156.244 127.348C155.051 127.865 154.373 129.167 154.37 130.432C154.32 132.608 154.396 134.787 154.358 136.966C153.586 137.048 152.812 137.044 152.043 136.975C151.996 133.113 151.993 129.252 152.043 125.393C152.748 125.329 153.458 125.312 154.161 125.428C154.23 125.643 154.373 126.075 154.445 126.289ZM125.842 133.638C125.935 134.819 127.217 135.466 128.294 135.399C129.97 135.321 131.386 133.856 131.47 132.19C130.548 131.361 129.204 131.32 128.032 131.416C126.901 131.471 125.697 132.411 125.842 133.638ZM123.959 127.467C125.766 124.114 131.473 124.093 133.292 127.465C133.803 128.576 133.695 129.838 133.71 131.03C133.672 133.02 133.759 135.014 133.669 137.004C133.083 137.038 132.497 137.036 131.914 136.986C131.725 136.714 131.543 136.444 131.354 136.177C130.025 137.012 128.465 137.915 126.845 137.363C124.502 137.009 122.703 134.329 123.732 132.077C124.374 130.334 126.28 129.576 127.997 129.449C129.213 129.356 130.382 129.771 131.586 129.846C131.467 128.433 130.414 127.076 128.888 127.168C127.548 126.942 126.428 127.755 125.549 128.66C124.951 128.358 124.437 127.926 123.959 127.467ZM145.263 125.184C145.295 124.183 145.167 123.162 145.396 122.178C146.121 122.161 146.847 122.167 147.575 122.213C147.639 123.194 147.575 124.178 147.642 125.158C148.396 125.561 149.388 125.254 150.238 125.378C150.279 126.066 150.279 126.76 150.25 127.453C149.371 127.494 148.492 127.511 147.621 127.63C147.61 129.722 147.598 131.817 147.627 133.911C147.601 134.454 147.854 135.101 148.439 135.231C149.086 135.292 149.736 135.17 150.386 135.147C150.464 135.855 150.383 136.569 150.206 137.259C149.159 137.32 148.068 137.465 147.05 137.169C146.235 136.67 145.39 135.948 145.35 134.918C145.121 132.504 145.417 130.073 145.199 127.659C144.531 127.551 143.864 127.456 143.2 127.36C143.194 126.71 143.208 126.063 143.249 125.419C143.917 125.349 144.619 125.416 145.263 125.184ZM113.842 123.087C113.668 124.824 113.715 126.585 113.807 128.329C115.209 128.337 116.624 128.439 118.02 128.268C119.923 127.618 120.402 124.885 118.87 123.617C117.382 122.663 115.502 123.211 113.842 123.087ZM111.524 120.841C113.541 120.774 115.56 120.777 117.576 120.841C119.152 120.852 120.573 121.827 121.444 123.098C122.16 124.195 122.198 125.587 122.012 126.846C121.85 128.132 120.878 129.127 119.868 129.844C118.043 130.972 115.844 130.453 113.825 130.58C113.636 132.704 113.81 134.842 113.746 136.975C113.001 137.041 112.252 137.041 111.51 136.978C111.513 131.599 111.481 126.22 111.524 120.841Z" fill="#10132C"/>
<path d="M84.325 44.6978C90.7975 38.0309 100.221 34.5145 109.461 34.8655C114.875 35.2283 120.292 36.6382 124.922 39.5279C126.84 40.729 128.758 42.0143 130.283 43.7028C128.824 45.4116 127.115 46.8884 125.569 48.5159C123.921 50.1 122.386 51.8029 120.689 53.3319C118.034 50.9211 114.745 49.0992 111.156 48.6177C107.433 48.1822 103.502 48.3622 100.087 50.0449C96.2927 51.7565 93.0925 54.7131 90.992 58.2959C90.2668 59.5059 89.7938 60.8434 89.1961 62.1169C85.41 59.3287 81.7776 56.3435 78.0264 53.509C79.5002 50.193 81.7459 47.2335 84.325 44.6978Z" fill="#EA4335"/>
<path d="M78.0272 53.509C81.7784 56.3435 85.4109 59.3287 89.197 62.1169C88.6342 64.8324 87.7867 67.6091 88.3064 70.4058C88.463 71.9436 88.9242 73.426 89.1999 74.9435C86.2492 77.2731 83.2493 79.5419 80.3222 81.9064C79.5852 82.4981 78.7785 83.0002 77.946 83.4497C75.941 79.3938 74.6619 74.923 74.5311 70.3827C74.4094 67.4088 74.5109 64.3946 75.146 61.4788C75.8311 58.7369 76.5967 55.9634 78.0272 53.509Z" fill="#FBBC04"/>
<path d="M108.235 62.3693C117.437 62.3664 126.64 62.3723 135.843 62.3693C137.018 62.3752 138.202 62.2822 139.371 62.4737C141.402 72.4743 139.191 83.5599 132.544 91.4515C131.819 92.3156 131.123 93.2529 130.122 93.8159C126.446 91.1148 122.933 88.2049 119.294 85.4517C122.48 83.0579 124.932 79.4662 125.361 75.4481C119.619 75.3434 113.875 75.486 108.136 75.3813C107.977 71.984 108.125 68.5779 108.066 65.1748C108.098 64.2405 107.942 63.2743 108.235 62.3693Z" fill="#4284F4"/>
<path d="M80.3215 81.9063C83.249 79.5418 86.2486 77.273 89.1992 74.9434C89.9274 76.2924 90.3831 77.778 91.2299 79.0633C93.8733 83.4062 98.2019 86.6962 103.114 88.0248C106.549 88.8257 110.158 88.7213 113.593 87.9612C115.621 87.4419 117.475 86.4583 119.294 85.4516C122.932 88.2049 126.445 91.1148 130.121 93.8159C129.236 94.9443 128.029 95.7425 126.872 96.5633C121.394 100.439 114.611 101.983 107.99 102.148C101.309 102.012 94.6102 100.112 89.0948 96.2759C84.3572 93.0558 80.481 88.585 77.9453 83.4496C78.7782 83.0001 79.5846 82.498 80.3215 81.9063Z" fill="#34A853"/>
<path d="M97.9904 127.447C96.9837 127.804 96.5283 128.874 96.2233 129.815C98.3414 129.838 100.462 129.852 102.58 129.8C102.351 129.112 102.174 128.341 101.585 127.862C100.604 127.038 99.1423 126.986 97.9904 127.447ZM95.4577 126.635C96.5166 125.532 98.0397 124.862 99.583 124.993C101.516 124.903 103.317 126.119 104.289 127.734C104.956 128.898 104.997 130.29 104.971 131.599C102.064 131.956 99.1015 131.61 96.1744 131.761C95.9189 133.969 98.2834 135.785 100.378 135.26C101.573 135.138 102.244 134.076 102.96 133.253C103.572 133.508 104.17 133.795 104.768 134.082C104.367 135.785 102.65 136.908 101.031 137.32C99.3077 137.848 97.4597 137.274 96.0002 136.322C94.4278 135.179 93.8328 133.165 93.6442 131.32C93.7721 129.649 94.1985 127.833 95.4577 126.635ZM80.2522 127.404C77.7165 128.587 77.3916 132.362 79.1702 134.332C80.1681 135.419 81.9235 135.62 83.2 134.932C85.7008 133.395 85.7588 129.194 83.2985 127.595C82.3789 127.087 81.227 127.029 80.2522 127.404ZM76.0453 129.269C76.6518 126.835 78.9901 124.737 81.5927 124.995C82.8633 124.903 83.8847 125.735 84.9175 126.336C85.019 126.014 85.1234 125.692 85.2248 125.373C85.9037 125.329 86.5829 125.326 87.2617 125.367C87.3371 129.095 87.2702 132.829 87.2934 136.56C87.34 138.394 86.5711 140.367 84.9726 141.373C83.5653 142.275 81.8044 142.293 80.1971 142.11C78.4447 141.881 76.8694 140.566 76.3471 138.875C76.8925 138.463 77.5221 137.932 78.2561 138.071C78.8828 138.707 79.408 139.487 80.2291 139.896C81.7144 140.622 83.6351 140.013 84.5691 138.684C85.1002 137.906 85.0594 136.931 85.0712 136.032C83.8498 136.809 82.5094 137.674 80.995 137.5C79.4892 137.259 77.8907 136.632 77.0347 135.295C75.7729 133.592 75.5175 131.288 76.0453 129.269ZM67.4576 127.331C64.3999 128.271 64.014 132.983 66.5527 134.712C67.806 135.57 69.7121 135.573 70.8581 134.52C72.7293 133.061 72.8076 130.009 71.2757 128.28C70.3561 127.206 68.7664 126.957 67.4576 127.331ZM66.9327 125.178C68.4588 124.836 70.1675 124.883 71.534 125.718C74.7486 127.369 75.6219 132.022 73.5563 134.889C72.4944 136.58 70.4807 137.483 68.5312 137.532C66.6861 137.39 64.7392 136.595 63.7152 134.979C62.6765 133.618 62.5082 131.814 62.685 130.163C62.9029 127.833 64.7421 125.863 66.9327 125.178ZM54.1296 127.363C52.766 127.816 51.8519 129.196 51.7824 130.607C51.6431 132.022 51.9188 133.636 53.1313 134.538C54.9794 136.177 58.3013 135.141 58.9051 132.745C59.2039 131.23 59.2444 129.353 57.9737 128.248C57.0567 127.142 55.4351 126.948 54.1296 127.363ZM53.851 125.143C55.5193 124.784 57.3644 124.978 58.7772 126.002C61.5305 127.781 62.2645 131.845 60.544 134.581C59.5259 136.511 57.2861 137.509 55.1767 137.523C53.7551 137.349 52.2812 136.885 51.2543 135.843C49.5279 134.204 48.9828 131.547 49.6617 129.304C50.1256 127.252 51.8721 125.709 53.851 125.143ZM89.5681 120.911C90.3223 120.774 91.0912 120.777 91.8572 120.821C91.9586 126.171 91.8774 131.523 91.8976 136.876C91.1581 137.155 90.3543 137.004 89.5883 136.978C89.5303 131.622 89.5681 126.266 89.5681 120.911ZM34.9058 122.071C37.2705 120.203 40.6443 120.075 43.3976 121.079C44.3841 121.546 45.504 122.103 45.9711 123.156C45.504 123.667 45.0137 124.16 44.4829 124.604C43.685 123.957 42.8871 123.263 41.895 122.939C39.4549 122.216 36.5538 122.959 35.0539 125.1C33.7829 126.583 33.7307 128.665 33.995 130.505C34.543 133.383 37.4937 135.495 40.3951 135.24C43.012 135.263 45.594 133.076 45.5882 130.38C43.6997 130.241 41.8079 130.392 39.9165 130.305C39.6232 129.713 39.6464 129.04 39.7713 128.41C42.4229 128.143 45.1125 128.326 47.7787 128.315C48.0599 130.682 47.6975 133.351 45.9017 135.075C42.9771 138.193 37.662 138.231 34.4706 135.501C32.4513 133.778 31.2792 131.085 31.4681 128.431C31.6015 125.936 32.9185 123.568 34.9058 122.071Z" fill="#10132C"/>
<path d="M0 170.939H214V214H0V170.939Z" fill="#5F6368"/>
<path d="M163.594 199.517C162.111 199.517 160.945 199.051 160.096 198.118C159.258 197.185 158.84 195.702 158.84 193.668V193.309C158.84 191.683 159.055 190.379 159.486 189.398C159.916 188.405 160.502 187.688 161.244 187.245C161.998 186.79 162.841 186.563 163.774 186.563C164.492 186.563 165.12 186.671 165.658 186.886C166.208 187.09 166.657 187.412 167.003 187.855C167.362 188.286 167.602 188.848 167.721 189.542H165.568C165.437 189.159 165.221 188.884 164.922 188.716C164.623 188.549 164.24 188.465 163.774 188.465C163.236 188.465 162.745 188.585 162.303 188.824C161.872 189.063 161.525 189.482 161.262 190.08C161.011 190.666 160.873 191.503 160.849 192.592C161.16 192.065 161.609 191.695 162.195 191.479C162.793 191.252 163.379 191.138 163.953 191.138C164.803 191.138 165.526 191.294 166.124 191.605C166.722 191.916 167.183 192.37 167.506 192.969C167.829 193.555 167.99 194.278 167.99 195.14V195.319C167.99 196.144 167.799 196.874 167.416 197.508C167.033 198.142 166.507 198.638 165.837 198.997C165.179 199.344 164.432 199.517 163.594 199.517ZM163.451 197.616C164.169 197.616 164.743 197.406 165.173 196.988C165.616 196.557 165.837 196.001 165.837 195.319V195.14C165.837 194.47 165.616 193.925 165.173 193.507C164.743 193.076 164.169 192.861 163.451 192.861C162.733 192.861 162.153 193.076 161.711 193.507C161.28 193.925 161.065 194.47 161.065 195.14V195.319C161.065 196.001 161.28 196.557 161.711 196.988C162.153 197.406 162.733 197.616 163.451 197.616Z" fill="white"/>
<path d="M148.437 199.32V197.633L153.119 193.579C153.634 193.124 154.046 192.735 154.357 192.412C154.668 192.077 154.896 191.766 155.039 191.479C155.183 191.18 155.255 190.863 155.255 190.528C155.255 189.918 155.069 189.422 154.698 189.039C154.339 188.656 153.837 188.465 153.191 188.465C152.426 188.465 151.828 188.674 151.397 189.093C150.978 189.5 150.769 190.128 150.769 190.977H148.616C148.616 190.092 148.801 189.32 149.172 188.662C149.555 187.993 150.087 187.478 150.769 187.119C151.451 186.749 152.258 186.563 153.191 186.563C154.1 186.563 154.866 186.737 155.488 187.084C156.122 187.418 156.6 187.885 156.923 188.483C157.246 189.081 157.408 189.763 157.408 190.528C157.408 191.091 157.288 191.623 157.049 192.125C156.809 192.616 156.481 193.088 156.062 193.543C155.655 193.985 155.177 194.422 154.627 194.852L151.433 197.454H157.587V199.32H148.437Z" fill="white"/>
<path d="M142.697 199.517C142.039 199.517 141.423 199.416 140.849 199.212C140.287 198.997 139.791 198.65 139.36 198.172C138.941 197.681 138.612 197.017 138.373 196.18C138.146 195.343 138.032 194.296 138.032 193.04V192.681C138.032 191.521 138.146 190.552 138.373 189.775C138.612 188.985 138.941 188.357 139.36 187.891C139.791 187.412 140.287 187.072 140.849 186.868C141.423 186.665 142.039 186.563 142.697 186.563C143.355 186.563 143.965 186.665 144.527 186.868C145.101 187.072 145.598 187.412 146.016 187.891C146.447 188.357 146.776 188.985 147.003 189.775C147.242 190.552 147.362 191.521 147.362 192.681V193.04C147.362 194.296 147.242 195.343 147.003 196.18C146.776 197.017 146.447 197.681 146.016 198.172C145.598 198.65 145.101 198.997 144.527 199.212C143.965 199.416 143.355 199.517 142.697 199.517ZM142.697 197.651C143.032 197.651 143.349 197.586 143.648 197.454C143.947 197.322 144.21 197.089 144.438 196.754C144.677 196.407 144.862 195.935 144.994 195.337C145.137 194.739 145.209 193.973 145.209 193.04V192.681C145.209 191.557 145.089 190.69 144.85 190.08C144.623 189.458 144.318 189.027 143.935 188.788C143.552 188.549 143.14 188.429 142.697 188.429C142.255 188.429 141.842 188.549 141.459 188.788C141.076 189.027 140.765 189.458 140.526 190.08C140.299 190.69 140.185 191.557 140.185 192.681V193.04C140.185 193.973 140.251 194.739 140.383 195.337C140.526 195.935 140.712 196.407 140.939 196.754C141.178 197.089 141.447 197.322 141.746 197.454C142.045 197.586 142.362 197.651 142.697 197.651Z" fill="white"/>
<path d="M127.629 199.32V197.633L132.312 193.579C132.826 193.124 133.239 192.735 133.55 192.412C133.861 192.077 134.088 191.766 134.232 191.479C134.375 191.18 134.447 190.863 134.447 190.528C134.447 189.918 134.261 189.422 133.891 189.039C133.532 188.656 133.029 188.465 132.384 188.465C131.618 188.465 131.02 188.674 130.589 189.093C130.171 189.5 129.961 190.128 129.961 190.977H127.808C127.808 190.092 127.994 189.32 128.365 188.662C128.747 187.993 129.28 187.478 129.961 187.119C130.643 186.749 131.451 186.563 132.384 186.563C133.293 186.563 134.058 186.737 134.68 187.084C135.314 187.418 135.793 187.885 136.116 188.483C136.438 189.081 136.6 189.763 136.6 190.528C136.6 191.091 136.48 191.623 136.241 192.125C136.002 192.616 135.673 193.088 135.254 193.543C134.848 193.985 134.369 194.422 133.819 194.852L130.625 197.454H136.779V199.32H127.629Z" fill="white"/>
<path d="M112.924 199.32V186.761H117.678C118.731 186.761 119.604 186.928 120.298 187.263C121.004 187.598 121.536 188.059 121.895 188.645C122.254 189.231 122.433 189.907 122.433 190.672C122.433 191.533 122.2 192.281 121.733 192.915C121.267 193.537 120.567 193.985 119.634 194.261L122.792 199.32H120.424L117.643 194.512H115.077V199.32H112.924ZM115.077 192.718H117.32C118.42 192.718 119.186 192.538 119.616 192.179C120.059 191.82 120.28 191.318 120.28 190.672C120.28 190.026 120.059 189.524 119.616 189.165C119.186 188.806 118.42 188.627 117.32 188.627H115.077V192.718Z" fill="white"/>
<path d="M102.424 199.32V186.761H110.857V188.627H104.577V191.928H110.318V193.794H104.577V197.454H110.857V199.32H102.424Z" fill="white"/>
<path d="M97.3945 199.32V186.761H99.5476V199.32H97.3945Z" fill="white"/>
<path d="M82.1416 199.32V186.761H84.3664L88.3675 194.207L92.3686 186.761H94.5216V199.32H92.3686V190.529L89.0493 196.719H87.6139L84.2947 190.529V199.32H82.1416Z" fill="white"/>
<path d="M71.6406 199.32V186.761H80.0734V188.627H73.7937V191.928H79.5351V193.794H73.7937V197.454H80.0734V199.32H71.6406Z" fill="white"/>
<path d="M59.8965 199.32V186.761H64.6511C65.7037 186.761 66.5769 186.928 67.2707 187.263C67.9764 187.598 68.5087 188.059 68.8675 188.645C69.2264 189.231 69.4058 189.907 69.4058 190.672C69.4058 191.533 69.1725 192.281 68.706 192.915C68.2395 193.537 67.5398 193.985 66.6068 194.261L69.7646 199.32H67.3963L64.6152 194.512H62.0495V199.32H59.8965ZM62.0495 192.718H64.2923C65.3927 192.718 66.1583 192.538 66.5889 192.179C67.0314 191.82 67.2527 191.318 67.2527 190.672C67.2527 190.026 67.0314 189.524 66.5889 189.165C66.1583 188.806 65.3927 188.627 64.2923 188.627H62.0495V192.718Z" fill="white"/>
<path d="M48.5908 199.32V186.761H53.166C54.2904 186.761 55.2174 186.928 55.9471 187.263C56.6767 187.586 57.215 188.047 57.5619 188.645C57.9207 189.243 58.1001 189.948 58.1001 190.762C58.1001 191.575 57.9207 192.281 57.5619 192.879C57.215 193.477 56.6767 193.944 55.9471 194.278C55.2174 194.601 54.2904 194.763 53.166 194.763H50.7439V199.32H48.5908ZM50.7439 192.897H52.9866C54.123 192.897 54.9005 192.723 55.3191 192.377C55.7377 192.018 55.9471 191.48 55.9471 190.762C55.9471 190.056 55.7377 189.524 55.3191 189.165C54.9005 188.806 54.123 188.627 52.9866 188.627H50.7439V192.897Z" fill="white"/>
</svg>
