<svg width="73" height="71" viewBox="0 0 73 71" fill="none" xmlns="http://www.w3.org/2000/svg">
<mask id="mask0_8522_24003" style="mask-type:alpha" maskUnits="userSpaceOnUse" x="0" y="0" width="73" height="71">
<path fill-rule="evenodd" clip-rule="evenodd" d="M0.823792 70.1035H72.6879V0.742432H0.823792V70.1035Z" fill="white"/>
</mask>
<g mask="url(#mask0_8522_24003)">
<path fill-rule="evenodd" clip-rule="evenodd" d="M48.3712 27.3411V58.2855L52.778 56.8402V46.4848C52.778 45.2258 53.3672 44.7064 54.5023 44.3332L55.992 43.8474V39.4201L52.778 40.471V28.6647C52.778 27.4507 53.1566 26.7868 54.2755 26.4233L56.5832 25.6697V21.2594L51.6169 22.8812C49.3984 23.6052 48.3712 24.9555 48.3712 27.3411ZM41.6035 27.8592V44.1159L39.9766 44.6483C39.6588 44.7531 39.2603 44.7299 38.9879 44.493C38.7019 44.2712 38.4977 43.7704 38.4977 43.0158V27.1594L35.6285 28.0961C34.6013 28.4543 34.1155 29.1048 34.0915 30.2187V43.8839C34.0915 45.3155 34.6455 46.9488 35.7766 47.9073C36.7663 48.7432 38.8195 49.4518 40.8926 48.7752L46.0087 47.1073V24.7102L43.1273 25.6602C42.0859 26.0315 41.6035 26.7 41.6035 27.8592ZM62.4842 37.2929V25.4857C62.4842 24.2697 62.8624 23.61 63.9817 23.2469L65.6772 22.6907V18.2823L61.3227 19.7054C59.1056 20.4281 58.0783 21.7732 58.0783 24.1647V55.1032L62.4842 53.6618V43.3058C62.4842 42.0442 63.0727 41.5241 64.2085 41.1551L65.6988 40.6696V36.2424L62.4842 37.2929ZM27.6744 43.3939C27.6744 46.5308 26.9209 48.8401 23.7887 49.8528L17.0001 52.0664V44.493L24.2569 32.987L25.1432 33.5374C27.458 34.9921 27.6744 36.7324 27.6744 38.1647V43.3939ZM17.0001 21.0365L20.9997 19.723C22.6425 19.1922 23.8756 19.5142 24.577 20.4375C25.7199 21.9377 24.9549 23.8968 23.8493 25.6462L17.0001 36.504V21.0365ZM27.6744 29.7645L26.6857 29.1407L27.7264 27.4869C29.5677 24.5679 30.6318 20.8773 28.0976 17.5006C26.2374 15.023 22.5387 14.7643 19.0313 15.9094L7.0043 19.8366C7.0043 19.8366 12.3756 20.1367 12.3756 24.5324V58.0849L25.0046 53.9613C31.5529 51.826 32.3182 48.2437 32.3182 42.543V37.2593C32.3182 33.8046 30.841 31.7155 27.6744 29.7645ZM36.7572 68.4079C17.882 68.4128 2.58188 53.6383 2.58188 35.4186C2.58188 17.205 17.882 2.43668 36.7572 2.43668C55.6324 2.43668 70.9308 17.205 70.9308 35.4186C70.9308 53.6383 55.6324 68.4079 36.7572 68.4079ZM36.7572 0.742432C16.9136 0.742432 0.823792 16.2693 0.823792 35.4186C0.823792 54.575 16.9136 70.1074 36.7572 70.1035C56.6032 70.1035 72.6879 54.575 72.6879 35.4186C72.6855 16.2693 56.6032 0.742432 36.7572 0.742432Z" fill="white"/>
</g>
</svg>
