<?xml version="1.0" encoding="UTF-8"?>
<svg xmlns="http://www.w3.org/2000/svg" xmlns:xlink="http://www.w3.org/1999/xlink" width="200px" height="200px" viewBox="0 0 200 200" version="1.1">
<g id="surface1">
<path style=" stroke:none;fill-rule:nonzero;fill:rgb(99.215686%,73.333335%,18.82353%);fill-opacity:1;" d="M 175.679688 92.234375 C 176.792969 92.234375 177.710938 91.65625 177.835938 90.90625 L 178.933594 78.46875 C 178.933594 77.238281 177.496094 76.230469 175.683594 76.230469 C 173.875 76.230469 172.4375 77.238281 172.4375 78.46875 L 173.535156 90.90625 C 173.65625 91.65625 174.574219 92.234375 175.683594 92.234375 L 175.679688 92.234375 M 168.957031 96.117188 C 169.515625 95.15625 169.476562 94.070312 168.886719 93.589844 L 158.664062 86.421875 C 157.601562 85.804688 156.007812 86.546875 155.101562 88.113281 C 154.195312 89.679688 154.355469 91.429688 155.414062 92.046875 L 166.734375 97.316406 C 167.441406 97.578125 168.40625 97.074219 168.960938 96.109375 L 168.957031 96.117188 M 182.410156 96.113281 C 182.964844 97.074219 183.925781 97.578125 184.632812 97.316406 L 195.953125 92.046875 C 197.019531 91.429688 197.171875 89.679688 196.273438 88.113281 C 195.363281 86.546875 193.769531 85.804688 192.707031 86.421875 L 182.484375 93.589844 C 181.898438 94.070312 181.855469 95.15625 182.410156 96.117188 L 182.410156 96.113281 M 175.679688 107.769531 C 176.792969 107.769531 177.710938 108.34375 177.835938 109.09375 L 178.933594 121.527344 C 178.933594 122.761719 177.496094 123.769531 175.683594 123.769531 C 173.875 123.769531 172.4375 122.761719 172.4375 121.527344 L 173.535156 109.09375 C 173.65625 108.34375 174.574219 107.769531 175.683594 107.769531 L 175.679688 107.769531 M 182.410156 103.882812 C 182.964844 102.917969 183.925781 102.417969 184.632812 102.683594 L 195.953125 107.949219 C 197.019531 108.566406 197.171875 110.316406 196.273438 111.886719 C 195.363281 113.449219 193.769531 114.191406 192.707031 113.578125 L 182.484375 106.414062 C 181.898438 105.929688 181.855469 104.84375 182.410156 103.882812 L 182.40625 103.882812 M 168.957031 103.882812 C 169.515625 104.84375 169.476562 105.929688 168.886719 106.414062 L 158.664062 113.578125 C 157.601562 114.191406 156.007812 113.449219 155.101562 111.886719 C 154.195312 110.320312 154.355469 108.566406 155.414062 107.949219 L 166.734375 102.683594 C 167.441406 102.417969 168.40625 102.917969 168.960938 103.886719 L 168.957031 103.886719 "/>
<path style=" stroke:none;fill-rule:nonzero;fill:rgb(10.196079%,45.882353%,81.176472%);fill-opacity:1;" d="M 111.199219 106.390625 C 111.199219 106.773438 111.164062 107.167969 111.058594 107.511719 C 110.625 108.949219 109.140625 110.160156 107.277344 110.160156 C 105.726562 110.160156 104.496094 109.28125 104.496094 107.421875 C 104.496094 104.574219 107.628906 103.785156 111.199219 103.804688 Z M 116.792969 101.429688 C 116.792969 96.734375 114.789062 92.601562 108.007812 92.601562 C 104.527344 92.601562 101.765625 93.578125 100.257812 94.449219 L 101.363281 98.222656 C 102.742188 97.355469 104.9375 96.632812 107.015625 96.632812 C 110.453125 96.625 111.015625 98.582031 111.015625 99.835938 L 111.015625 100.128906 C 103.519531 100.121094 98.78125 102.714844 98.78125 108.003906 C 98.78125 111.234375 101.195312 114.257812 105.390625 114.257812 C 107.96875 114.257812 110.128906 113.230469 111.417969 111.582031 L 111.546875 111.582031 C 111.546875 111.582031 112.402344 115.164062 117.121094 113.792969 C 116.875 112.300781 116.792969 110.710938 116.792969 108.800781 L 116.792969 101.429688 M 0 86.207031 C 0 86.207031 4.898438 106.277344 5.679688 109.535156 C 6.59375 113.335938 8.238281 114.738281 12.976562 113.792969 L 16.035156 101.347656 C 16.8125 98.257812 17.328125 96.050781 17.828125 92.910156 L 17.917969 92.910156 C 18.265625 96.085938 18.765625 98.265625 19.402344 101.359375 C 19.402344 101.359375 20.648438 107.007812 21.285156 109.972656 C 21.925781 112.941406 23.703125 114.808594 28.347656 113.792969 L 35.632812 86.207031 L 29.75 86.207031 L 27.261719 98.132812 C 26.59375 101.605469 25.988281 104.320312 25.519531 107.492188 L 25.433594 107.492188 C 25.011719 104.347656 24.46875 101.742188 23.789062 98.359375 L 21.199219 86.207031 L 15.070312 86.207031 L 12.296875 98.054688 C 11.511719 101.65625 10.777344 104.5625 10.3125 107.628906 L 10.226562 107.628906 C 9.75 104.742188 9.109375 101.085938 8.421875 97.601562 C 8.421875 97.601562 6.777344 89.125 6.199219 86.207031 L 0 86.207031 M 46.761719 106.390625 C 46.761719 106.773438 46.726562 107.167969 46.621094 107.511719 C 46.1875 108.949219 44.699219 110.160156 42.839844 110.160156 C 41.289062 110.160156 40.058594 109.28125 40.058594 107.421875 C 40.058594 104.574219 43.195312 103.785156 46.761719 103.804688 Z M 52.355469 101.429688 C 52.355469 96.734375 50.351562 92.601562 43.574219 92.601562 C 40.089844 92.601562 37.328125 93.578125 35.820312 94.449219 L 36.921875 98.222656 C 38.300781 97.355469 40.496094 96.632812 42.574219 96.632812 C 46.015625 96.625 46.582031 98.582031 46.582031 99.835938 L 46.582031 100.128906 C 39.082031 100.121094 34.34375 102.714844 34.34375 108.003906 C 34.34375 111.234375 36.757812 114.257812 40.949219 114.257812 C 43.53125 114.257812 45.6875 113.230469 46.980469 111.582031 L 47.109375 111.582031 C 47.109375 111.582031 47.964844 115.164062 52.683594 113.792969 C 52.4375 112.300781 52.355469 110.710938 52.355469 108.800781 L 52.355469 101.429688 M 61.695312 107.9375 L 61.695312 86.207031 L 56.09375 86.207031 L 56.09375 113.792969 L 61.695312 113.792969 L 61.695312 107.9375 M 134.992188 86.207031 L 134.992188 106.554688 C 134.992188 109.363281 135.519531 111.328125 136.648438 112.53125 C 137.636719 113.582031 139.261719 114.261719 141.210938 114.261719 C 142.867188 114.261719 144.496094 113.945312 145.265625 113.660156 L 145.195312 109.28125 C 144.621094 109.421875 143.964844 109.535156 143.066406 109.535156 C 141.15625 109.535156 140.519531 108.3125 140.519531 105.792969 L 140.519531 98.007812 L 145.398438 98.007812 L 145.398438 92.730469 L 140.519531 92.730469 L 140.519531 86.207031 L 134.992188 86.207031 M 120.53125 93.070312 L 120.53125 113.792969 L 126.308594 113.792969 L 126.308594 103.183594 C 126.308594 102.609375 126.34375 102.109375 126.433594 101.652344 C 126.863281 99.425781 128.5625 98.007812 131.003906 98.007812 C 131.671875 98.007812 132.152344 98.082031 132.671875 98.15625 L 132.671875 92.730469 C 132.234375 92.640625 131.941406 92.601562 131.398438 92.601562 C 129.242188 92.601562 126.789062 93.992188 125.757812 96.980469 L 125.601562 96.980469 L 125.601562 93.070312 L 120.53125 93.070312 M 65.617188 93.070312 L 65.617188 113.792969 L 71.25 113.792969 L 71.25 101.640625 C 71.25 101.070312 71.316406 100.46875 71.515625 99.945312 C 71.980469 98.71875 73.121094 97.289062 74.9375 97.289062 C 77.210938 97.289062 78.273438 99.207031 78.273438 101.980469 L 78.273438 113.792969 L 83.898438 113.792969 L 83.898438 101.492188 C 83.898438 100.945312 83.972656 100.289062 84.132812 99.8125 C 84.597656 98.417969 85.824219 97.285156 87.511719 97.285156 C 89.816406 97.285156 90.921875 99.171875 90.921875 102.4375 L 90.921875 113.789062 L 96.550781 113.789062 L 96.550781 101.585938 C 96.550781 95.148438 93.28125 92.601562 89.59375 92.601562 C 87.960938 92.601562 86.671875 93.007812 85.503906 93.722656 C 84.523438 94.328125 83.644531 95.183594 82.878906 96.304688 L 82.796875 96.304688 C 81.90625 94.074219 79.8125 92.601562 77.082031 92.601562 C 73.578125 92.601562 72.003906 94.378906 71.046875 95.882812 L 70.964844 95.882812 L 70.964844 93.066406 L 65.617188 93.066406 "/>
<path style=" stroke:none;fill-rule:nonzero;fill:rgb(99.215686%,73.333335%,18.82353%);fill-opacity:1;" d="M 198.792969 112.785156 L 198.878906 112.785156 C 198.992188 112.785156 199.0625 112.738281 199.0625 112.667969 C 199.0625 112.589844 198.996094 112.546875 198.890625 112.546875 C 198.855469 112.546875 198.816406 112.554688 198.792969 112.554688 L 198.792969 112.789062 Z M 198.78125 113.34375 L 198.480469 113.34375 L 198.480469 112.367188 C 198.546875 112.355469 198.707031 112.332031 198.910156 112.332031 C 199.128906 112.332031 199.230469 112.363281 199.300781 112.410156 C 199.363281 112.453125 199.40625 112.527344 199.40625 112.625 C 199.40625 112.726562 199.316406 112.808594 199.179688 112.847656 L 199.179688 112.859375 C 199.289062 112.890625 199.351562 112.96875 199.382812 113.109375 C 199.410156 113.25 199.429688 113.308594 199.449219 113.34375 L 199.109375 113.34375 C 199.082031 113.308594 199.0625 113.222656 199.042969 113.136719 C 199.023438 113.039062 198.976562 112.988281 198.878906 112.988281 L 198.78125 112.988281 Z M 198.902344 112.050781 C 198.472656 112.050781 198.148438 112.402344 198.148438 112.847656 C 198.148438 113.28125 198.476562 113.636719 198.914062 113.636719 C 199.359375 113.644531 199.683594 113.28125 199.683594 112.839844 C 199.683594 112.398438 199.359375 112.050781 198.910156 112.050781 Z M 198.921875 111.785156 C 199.523438 111.785156 200 112.257812 200 112.839844 C 200 113.429688 199.523438 113.902344 198.914062 113.902344 C 198.308594 113.902344 197.824219 113.429688 197.824219 112.839844 C 197.824219 112.257812 198.308594 111.785156 198.914062 111.785156 L 198.921875 111.785156 "/>
</g>
</svg>
